<svg xmlns="http://www.w3.org/2000/svg" width="429.396" height="327.637" version="1.1" viewBox="0 0 113.611 86.687"><defs><marker id="marker3667" orient="auto" overflow="visible"><path fill="#28a4ff" fill-rule="evenodd" stroke="#28a4ff" stroke-linejoin="round" stroke-width=".625" d="m8.71859 4.03374-10.9259-4.01772 10.9259-4.01772c-1.7455 2.37206-1.73544 5.61745-6e-7 8.03544z" transform="scale(-.6)"/></marker><marker id="marker3517" orient="auto" overflow="visible"><path fill-rule="evenodd" stroke="#000" stroke-linejoin="round" stroke-width=".625" d="m8.71859 4.03374-10.9259-4.01772 10.9259-4.01772c-1.7455 2.37206-1.73544 5.61745-6e-7 8.03544z" transform="scale(-.6)"/></marker><marker id="marker3373" orient="auto" overflow="visible"><path fill-rule="evenodd" stroke="#000" stroke-linejoin="round" stroke-width=".625" d="m8.71859 4.03374-10.9259-4.01772 10.9259-4.01772c-1.7455 2.37206-1.73544 5.61745-6e-7 8.03544z" transform="scale(-.6)"/></marker><marker id="marker3199" orient="auto" overflow="visible"><path fill="#28a4ff" fill-rule="evenodd" stroke="#28a4ff" stroke-linejoin="round" stroke-width=".625" d="m8.71859 4.03374-10.9259-4.01772 10.9259-4.01772c-1.7455 2.37206-1.73544 5.61745-6e-7 8.03544z" transform="scale(-.6)"/></marker><marker id="marker3037" orient="auto" overflow="visible"><path fill="#28a4ff" fill-rule="evenodd" stroke="#28a4ff" stroke-linejoin="round" stroke-width=".625" d="m8.71859 4.03374-10.9259-4.01772 10.9259-4.01772c-1.7455 2.37206-1.73544 5.61745-6e-7 8.03544z" transform="scale(-.6)"/></marker><marker id="marker2779" orient="auto" overflow="visible"><path fill="#28a4ff" fill-rule="evenodd" stroke="#28a4ff" stroke-linejoin="round" stroke-width=".625" d="m8.71859 4.03374-10.9259-4.01772 10.9259-4.01772c-1.7455 2.37206-1.73544 5.61745-6e-7 8.03544z" transform="scale(-.6)"/></marker><marker id="marker2477" orient="auto" overflow="visible"><path fill="#28a4ff" fill-rule="evenodd" stroke="#28a4ff" stroke-linejoin="round" stroke-width=".625" d="m8.71859 4.03374-10.9259-4.01772 10.9259-4.01772c-1.7455 2.37206-1.73544 5.61745-6e-7 8.03544z" transform="scale(.6) rotate(180) translate(0)"/></marker><marker id="marker2074" orient="auto" overflow="visible"><path fill-rule="evenodd" stroke="#000" stroke-linejoin="round" stroke-width=".625" d="m8.71859 4.03374-10.9259-4.01772 10.9259-4.01772c-1.7455 2.37206-1.73544 5.61745-6e-7 8.03544z" transform="scale(.6) rotate(180) translate(0)"/></marker><marker id="marker1964" orient="auto" overflow="visible"><path fill-rule="evenodd" stroke="#000" stroke-linejoin="round" stroke-width=".625" d="m8.71859 4.03374-10.9259-4.01772 10.9259-4.01772c-1.7455 2.37206-1.73544 5.61745-6e-7 8.03544z" transform="scale(.6) rotate(180) translate(0)"/></marker><marker id="marker1856" orient="auto" overflow="visible"><path fill-rule="evenodd" stroke="#000" stroke-linejoin="round" stroke-width=".625" d="m8.71859 4.03374-10.9259-4.01772 10.9259-4.01772c-1.7455 2.37206-1.73544 5.61745-6e-7 8.03544z" transform="scale(.6) rotate(180) translate(0)"/></marker><marker id="Arrow2Mend" orient="auto" overflow="visible"><path fill-rule="evenodd" stroke="#000" stroke-linejoin="round" stroke-width=".625" d="m8.71859 4.03374-10.9259-4.01772 10.9259-4.01772c-1.7455 2.37206-1.73544 5.61745-6e-7 8.03544z" transform="scale(.6) rotate(180) translate(0)"/></marker><filter id="filter1204" width="1" height="1" x="0" y="0" color-interpolation-filters="sRGB"><feGaussianBlur stdDeviation="0"/></filter><marker id="marker2074-3" orient="auto" overflow="visible"><path fill="#28a4ff" fill-rule="evenodd" stroke="#28a4ff" stroke-linejoin="round" stroke-width=".625" d="m8.71859 4.03374-10.9259-4.01772 10.9259-4.01772c-1.7455 2.37206-1.73544 5.61745-6e-7 8.03544z" transform="scale(-.6)"/></marker><filter id="filter1204-6" width="1" height="1" x="0" y="0" color-interpolation-filters="sRGB"><feGaussianBlur stdDeviation="0"/></filter><filter id="filter1204-6-9" width="1" height="1" x="0" y="0" color-interpolation-filters="sRGB"><feGaussianBlur stdDeviation="0"/></filter><filter id="filter1204-6-2" width="1" height="1" x="0" y="0" color-interpolation-filters="sRGB"><feGaussianBlur stdDeviation="0"/></filter><filter id="filter1204-6-2-9" width="1" height="1" x="0" y="0" color-interpolation-filters="sRGB"><feGaussianBlur stdDeviation="0"/></filter><filter id="filter1204-6-2-9-4" width="1" height="1" x="0" y="0" color-interpolation-filters="sRGB"><feGaussianBlur stdDeviation="0"/></filter><filter id="filter1204-6-2-9-1" width="1" height="1" x="0" y="0" color-interpolation-filters="sRGB"><feGaussianBlur stdDeviation="0"/></filter><filter id="filter1204-6-2-9-1-3" width="1" height="1" x="0" y="0" color-interpolation-filters="sRGB"><feGaussianBlur stdDeviation="0"/></filter><filter id="filter1204-6-2-9-1-3-1" width="1" height="1" x="0" y="0" color-interpolation-filters="sRGB"><feGaussianBlur stdDeviation="0"/></filter></defs><metadata/><g transform="translate(-49.0277 -104.823)"><g><path fill="none" stroke="#28a4ff" stroke-width=".6" marker-end="url(#marker2477)" d="m130.534 165.429h-71.1816v-17.5315"/><path fill="none" stroke="#28a4ff" stroke-width=".6" marker-end="url(#marker3037)" d="m145.034 122.959v-11.5914h-43.1215"/><rect width="28.297" height="45.232" x="130.679" y="122.933" fill="#e5e5e5" stroke="#717171" stroke-linecap="square" stroke-width=".5" rx="0" ry="0"/><path fill="none" stroke="#28a4ff" stroke-width=".6" marker-end="url(#marker3199)" d="m102.044 116.236h23.3126l-0.13388 18.8185h19.9383v3.66603"/><path fill="none" stroke="#28a4ff" stroke-width=".6" marker-end="url(#marker2779)" d="m59.5006 138.391v-24.2517h20.6338"/><rect width="28.004" height="35.044" x="78.139" y="126.411" fill="#e5e5e5" stroke="#717171" stroke-linecap="square" stroke-width=".5" rx="0" ry="0"/></g><g fill="#ffcb35" stroke="#000" stroke-linecap="square"><ellipse cx="92.141" cy="114.239" stroke-width=".5" rx="10.887" ry="4.393"/><ellipse cx="92.141" cy="134.185" stroke-width=".5" rx="10.887" ry="4.393"/><ellipse cx="92.141" cy="152.199" stroke-width=".5" rx="10.887" ry="4.393"/></g><g fill="#28a4ff" stroke="#000" stroke-linecap="square" stroke-width=".5"><ellipse cx="144.827" cy="143.316" rx="10.887" ry="4.393"/><ellipse cx="144.827" cy="159.143" rx="10.887" ry="4.393"/><ellipse cx="59.436" cy="142.823" rx="7.365" ry="4.393"/><ellipse cx="144.827" cy="129.196" rx="10.887" ry="4.393"/><ellipse cx="143.077" cy="180.53" rx="10.887" ry="4.393"/></g><ellipse cx="110.386" cy="180.53" fill="#ffcb35" stroke="#000" stroke-linecap="square" stroke-width=".5" rx="10.887" ry="4.393"/><text x="110.909" y="179.427" font-size="3.175" xml:space="preserve"><tspan x="110.909" y="179.427" dy=".6" text-align="center" text-anchor="middle">Accessible</tspan><tspan x="110.909" y="183.396"><tspan font-size="3.175" text-align="center" text-anchor="middle">for S</tspan>W</tspan></text><text x="143.587" y="179.528" xml:space="preserve"><tspan x="143.587" y="179.528" dy="1 0 0 0 0 0" font-family="sans-serif" font-size="2.822" text-align="center" text-anchor="middle" style="font-variant-caps:normal;font-variant-east-asian:normal;font-variant-ligatures:normal;font-variant-numeric:normal">Inaccessible</tspan><tspan x="143.587" y="183.368" font-size="3.175"><tspan font-size="3.175" text-align="center" text-anchor="middle">for S</tspan>W</tspan></text><g font-size="3.175"><text x="91.95" y="115.29" xml:space="preserve"><tspan x="91.95" y="115.29" font-size="3.175"><tspan font-size="3.175" text-align="center" text-anchor="middle">Ready</tspan></tspan></text><text x="145.251" y="130.49" xml:space="preserve"><tspan x="145.251" y="130.49" font-size="3.175"><tspan font-size="3.175" text-align="center" text-anchor="middle">TX OK</tspan></tspan></text><text x="145.318" y="144.431" xml:space="preserve"><tspan x="145.318" y="144.431" font-size="3.175"><tspan font-size="3.175" text-align="center" text-anchor="middle">Aborted</tspan></tspan></text><text x="145.404" y="160.36" xml:space="preserve"><tspan x="145.404" y="160.36" font-size="3.175"><tspan font-size="3.175" text-align="center" text-anchor="middle">TX failed</tspan></tspan></text><text x="91.824" y="133.539" text-align="center" text-anchor="middle" xml:space="preserve" style="line-height:.9"><tspan x="91.824" y="133.539" text-align="center"><tspan font-size="3.175" text-align="center" text-anchor="middle">TX in</tspan></tspan><tspan x="91.824" y="136.397" text-align="center">progress</tspan></text><text x="91.649" y="151.848" text-align="center" text-anchor="middle" xml:space="preserve" style="line-height:.9"><tspan x="91.649" y="151.848" text-align="center"><tspan font-size="3.175" text-align="center" text-anchor="middle">Abort in</tspan></tspan><tspan x="91.649" y="154.706" text-align="center">progress</tspan></text><text x="59.456" y="143.917" xml:space="preserve"><tspan x="59.456" y="143.917" font-size="3.175"><tspan font-size="3.175" text-align="center" text-anchor="middle">Empty</tspan></tspan></text></g><g fill="none"><g stroke="#000"><rect width="106.581" height="16.601" x="52.394" y="171.63" stroke-linecap="square" stroke-width=".5" rx="0" ry="0"/><g stroke-width=".6"><path marker-end="url(#Arrow2Mend)" d="m106.383 159.046h26.4967"/><path marker-end="url(#marker1856)" d="m103.138 152.268h41.5564v-3.92426"/><path d="m106.38 129.354h17.7785"/><path marker-end="url(#marker1964)" d="m125.818 129.359h7.2418"/></g><path stroke-linecap="square" stroke-width=".6" d="m124.169 129.354a0.959514 0.97091 0 0 1 0.47587-0.84557 0.959514 0.97091 0 0 1 0.96164-3e-3 0.959514 0.97091 0 0 1 0.48149 0.84231"/><path stroke-width=".6" marker-end="url(#marker2074)" d="m55.7026 180.832h34.8131"/></g><g><path stroke="#28a4ff" stroke-width=".6" marker-end="url(#marker2074-3)" d="m55.6464 185.744h34.8131"/><g stroke-width=".6"><path stroke="#000" marker-end="url(#marker3373)" d="m94.0487 129.889v-10.6493"/><path stroke="#000" marker-end="url(#marker3517)" d="m89.7534 118.621v10.662"/><path stroke="#28a4ff" marker-end="url(#marker3667)" d="m92.119 138.812v7.9718"/></g></g></g><text font-size="12" style="line-height:1.1" x="26.959" y="9.117" fill="#2aa1ff" stroke-width="3.78" filter="url(#filter1204-6-2-9-1-3-1)" text-align="center" text-anchor="middle" transform="matrix(.264583 0 0 .264583 91.8919 139.964)" xml:space="preserve"><tspan x="26.959" y="9.117" text-align="center">Set</tspan><tspan x="26.959" y="22.317" text-align="center">abort</tspan></text><text x="57.621" y="16.855" filter="url(#filter1204)" font-size="3.175" text-align="center" text-anchor="middle" transform="translate(49.0277 104.823)" xml:space="preserve" style="line-height:1.1"><tspan x="57.621" y="16.855" text-align="center">Transmission</tspan><tspan x="57.621" y="20.348" text-align="center">unsuccesfull</tspan></text><g stroke-width="3.78" font-size="12" text-anchor="middle"><text x="38.824" y="9.117" filter="url(#filter1204)" text-align="center" transform="matrix(.264583 0 0 .264583 68.5988 118.913)" xml:space="preserve" style="line-height:1.1"><tspan x="38.824" y="9.117" text-align="center">Transmission</tspan><tspan x="38.824" y="22.317" text-align="center">starts</tspan></text><text x="38.824" y="9.117" filter="url(#filter1204)" text-align="center" transform="matrix(.264583 0 0 .264583 106.802 130.509)" xml:space="preserve" style="line-height:1.1"><tspan x="38.824" y="9.117" text-align="center">Transmission</tspan><tspan x="38.824" y="22.317" text-align="center">succesfull</tspan></text><text x="38.824" y="9.117" filter="url(#filter1204)" text-align="center" transform="matrix(.264583 0 0 .264583 107.77 145.476)" xml:space="preserve" style="line-height:1.1"><tspan x="38.824" y="9.117" text-align="center">Transmission</tspan><tspan x="38.824" y="22.317" text-align="center">sborted</tspan></text></g><g stroke-width="3.78" text-anchor="middle"><text x="38.824" y="9.117" filter="url(#filter1204)" font-size="10.667" text-align="center" transform="matrix(.264583 0 0 .264583 107.574 155.948)" xml:space="preserve" style="line-height:1.1"><tspan x="38.824" y="9.117" text-align="center">Retransmit</tspan><tspan x="38.824" y="20.851" text-align="center">limit reached or</tspan><tspan x="38.824" y="32.584" text-align="center">node went bus off</tspan></text><text x="38.825" y="9.117" filter="url(#filter1204-6)" font-size="12" text-align="center" transform="matrix(.264583 0 0 .264583 60.7127 177.384)" xml:space="preserve" style="line-height:1.1"><tspan x="38.825" y="9.117" stroke-width="3.78" font-size="12" text-align="center" text-anchor="middle">Transmission result</tspan></text><text x="57.727" y="9.117" filter="url(#filter1204-6-9)" font-size="12" text-align="center" transform="matrix(.264583 0 0 .264583 45.6885 173.226)" xml:space="preserve" style="line-height:1.1"><tspan x="57.727" y="9.117" stroke-width="3.78" font-size="12" text-align="center" text-anchor="middle">Legend:</tspan></text></g><g fill="#2aa1ff" stroke-width="3.78" font-size="12" text-anchor="middle"><text x="57.727" y="9.117" filter="url(#filter1204-6-2)" text-align="center" transform="matrix(.264583 0 0 .264583 57.0045 182.079)" xml:space="preserve" style="line-height:1.1"><tspan x="57.727" y="9.117" fill="#2aa1ff" stroke-width="3.78" font-size="12" text-align="center" text-anchor="middle">SW command</tspan></text><text x="40.823" y="9.117" filter="url(#filter1204-6-2-9)" text-align="center" transform="matrix(.264583 0 0 .264583 57.7865 110.104)" xml:space="preserve" style="line-height:1.1"><tspan x="40.823" y="9.117" fill="#2aa1ff" stroke-width="3.78" font-size="12" text-align="center" text-anchor="middle">Set ready</tspan></text><text x="28.049" y="9.117" filter="url(#filter1204-6-2-9-4)" text-align="center" transform="matrix(.264583 0 0 .264583 116.893 107.491)" xml:space="preserve" style="line-height:1.1"><tspan x="28.049" y="9.117" fill="#2aa1ff" stroke-width="3.78" font-size="12" text-align="center" text-anchor="middle">Set ready</tspan></text><text x="28.049" y="9.117" filter="url(#filter1204-6-2-9-1)" text-align="center" transform="matrix(.264583 0 0 .264583 87.5687 166.324)" xml:space="preserve" style="line-height:1.1"><tspan x="28.049" y="9.117" fill="#2aa1ff" stroke-width="3.78" font-size="12" text-align="center" text-anchor="middle">Set empty</tspan></text><text x="30.229" y="8.906" filter="url(#filter1204-6-2-9-1-3)" text-align="center" transform="matrix(.264583 0 0 .264583 106.53 113.074)" xml:space="preserve" style="line-height:1.1"><tspan x="30.229" y="8.906" fill="#2aa1ff" stroke-width="3.78" font-size="12" text-align="center" text-anchor="middle">Set abort</tspan></text></g></g></svg>