<svg xmlns="http://www.w3.org/2000/svg" xmlns:svg="http://www.w3.org/2000/svg" id="svg2019" width="1702" height="1845" version="1.1" viewBox="0 0 1702 1845"><g id="g2025"><rect id="rect34" width="208.834" height="486.099" x=".902" y="132.779" style="fill:#000;fill-opacity:0;stroke:#000;stroke-opacity:1"/><rect id="rect1019" width="126.389" height="55.321" x="25.961" y="188.069" style="fill:#fad7ac;fill-opacity:1;stroke:#000;stroke-opacity:1"/><rect id="rect1021" width="126.389" height="55.321" x="25.961" y="346.069" style="fill:#d0cee2;fill-opacity:1;stroke:#000;stroke-opacity:1"/><rect id="rect1103" width="126.389" height="55.321" x="25.961" y="266.069" style="fill:#afdde9;fill-opacity:1;stroke:#000;stroke-opacity:1"/><rect id="rect1105" width="126.389" height="55.321" x="25.961" y="426.069" style="fill:#f9f7ed;fill-opacity:1;stroke:#000;stroke-opacity:1"/><rect id="rect1107" width="126.389" height="55.321" x="25.961" y="506.069" style="fill:#e6e6e6;fill-opacity:1;stroke:#000;stroke-opacity:1"/><path style="stroke-width:.205176" id="path381056" d="m 402.61883,171.88069 c 0.025,10.97895 0.01,1001.03791 0.049,1012.01891 2.5462,-1.1592 5.0637,-2.3779 7.6202,-3.5187 -2.7411,4.8298 -5.4987,9.6453 -8.2624,14.4607 -2.7925,-4.8257 -5.5993,-9.6453 -8.3856,-14.4751 2.6221,1.1736 5.2217,2.3923 7.8398,3.5721 0,-10.8825 -0.035,-1000.84096 -0.031,-1011.72348 0.053,-0.30366 -0.2175,-0.50268 -0.3652,-0.72837 l 1.5347,0.39394 z"/><rect id="rect1131" width="239.476" height="1015.991" x="298.656" y="82.4" style="fill:#000;fill-opacity:0;stroke:#000;stroke-opacity:1"/><rect id="rect1133" width="340.447" height="525.774" x="298.796" y="1142.53" style="fill:#000;fill-opacity:0;stroke:#000;stroke-width:1.27861;stroke-opacity:1"/><rect id="rect1237" width="284.001" height="945.414" x="827.75" y="82.881" style="fill:#000;fill-opacity:0;stroke:#000;stroke-opacity:1"/><rect id="rect1239" width="239.376" height="179.033" x="1356.951" y="98.758" style="fill:#000;fill-opacity:0;stroke:#000;stroke-opacity:1"/><rect id="rect1241" width="239.418" height="713.649" x="1356.954" y="307.795" style="fill:#000;fill-opacity:0;stroke:#000;stroke-width:1.00744;stroke-opacity:1"/><rect id="rect1345" width="330.321" height="409.448" x="1363.872" y="1147.757" style="fill:#000;fill-opacity:0;stroke:#000;stroke-opacity:1"/><rect id="rect1347" width="369.894" height="682.322" x="825.725" y="1146.645" style="fill:#000;fill-opacity:0;stroke:#000;stroke-opacity:1"/><rect id="rect1349" width="163.957" height="40.145" x="1389.999" y="190.806" style="fill:#f9f7ed;fill-opacity:1;stroke:#000;stroke-opacity:1"/><rect id="rect1619" width="271.991" height="42.038" x="1393.981" y="1197.161" style="fill:#000;fill-opacity:0;stroke:#000;stroke-width:.964132;stroke-opacity:1"/><path style="stroke-width:.205176" id="path106-1" d="m 1469.3028,1238.8328 c 0.025,10.9789 0.01,175.0378 0.049,186.0188 2.5462,-1.1592 5.0637,-2.3779 7.6202,-3.5187 -2.7411,4.8298 -5.4987,9.6453 -8.2624,14.4607 -2.7925,-4.8257 -5.5993,-9.6453 -8.3856,-14.4751 2.6221,1.1736 5.2217,2.3923 7.8398,3.5721 0,-10.8825 -0.035,-174.8409 -0.031,-185.7234 0.053,-0.3037 -0.2175,-0.5027 -0.3652,-0.7284 l 1.5347,0.394 z"/><path style="stroke-width:.205176" id="path106-1-7" d="m 407.4759,1238.4728 c 0.025,10.9789 0.01,291.0378 0.049,302.0188 2.5462,-1.1592 5.0637,-2.3779 7.6202,-3.5187 -2.7411,4.8298 -5.4987,9.6453 -8.2624,14.4607 -2.7925,-4.8257 -5.5993,-9.6453 -8.3856,-14.4751 2.6221,1.1736 5.2217,2.3923 7.8398,3.5721 0,-10.8825 -0.035,-290.8409 -0.031,-301.7234 0.053,-0.3037 -0.2175,-0.5027 -0.3652,-0.7284 l 1.5347,0.394 z"/><rect id="rect1623" width="137.326" height="41.783" x="1396.385" y="1268.284" style="fill:#afdde9;fill-opacity:1;stroke:#000;stroke-opacity:1"/><rect id="rect1705" width="137.326" height="41.783" x="1396.385" y="1348.284" style="fill:#fad7ac;fill-opacity:1;stroke:#000;stroke-opacity:1"/><rect id="rect1707" width="137.326" height="41.783" x="1396.385" y="1432.284" style="fill:#afdde9;fill-opacity:1;stroke:#000;stroke-opacity:1"/><rect id="rect1731" width="222.345" height="44.646" x="867.363" y="190.427" style="fill:#f9f7ed;fill-opacity:1;stroke:#000;stroke-opacity:1"/><rect id="rect1813" width="222.345" height="44.646" x="867.363" y="254.427" style="fill:#f9f7ed;fill-opacity:1;stroke:#000;stroke-opacity:1"/><rect id="rect1815" width="222.345" height="44.646" x="867.363" y="318.427" style="fill:#f9f7ed;fill-opacity:1;stroke:#000;stroke-opacity:1"/><rect id="rect1817" width="222.345" height="44.646" x="867.363" y="412.427" style="fill:#fad7ac;fill-opacity:1;stroke:#000;stroke-opacity:1"/><rect id="rect1819" width="222.345" height="44.646" x="867.363" y="560.427" style="fill:#afdde9;fill-opacity:1;stroke:#000;stroke-opacity:1"/><rect id="rect1821" width="222.345" height="44.646" x="867.363" y="674.427" style="fill:#e6e6e6;fill-opacity:1;stroke:#000;stroke-opacity:1"/><rect id="rect1823" width="222.345" height="44.646" x="867.363" y="744.427" style="fill:#fad7ac;fill-opacity:1;stroke:#000;stroke-opacity:1"/><rect id="rect1825" width="222.345" height="44.646" x="867.363" y="820.427" style="fill:#afdde9;fill-opacity:1;stroke:#000;stroke-opacity:1"/><rect id="rect1827" width="222.345" height="44.646" x="867.363" y="890.427" style="fill:#d0cee2;fill-opacity:1;stroke:#000;stroke-opacity:1"/><rect id="rect1829" width="222.345" height="44.646" x="867.363" y="956.427" style="fill:#afdde9;fill-opacity:1;stroke:#000;stroke-opacity:1"/><rect id="rect1831" width="222.345" height="44.646" x="867.363" y="1256.427" style="fill:#fad7ac;fill-opacity:1;stroke:#000;stroke-opacity:1"/><rect id="rect1833" width="222.345" height="44.646" x="867.363" y="1402.427" style="fill:#d0cee2;fill-opacity:1;stroke:#000;stroke-opacity:1"/><rect id="rect1915" width="222.345" height="44.646" x="867.363" y="1330.427" style="fill:#afdde9;fill-opacity:1;stroke:#000;stroke-opacity:1"/><rect id="rect1917" width="222.345" height="44.646" x="867.363" y="1478.427" style="fill:#afdde9;fill-opacity:1;stroke:#000;stroke-opacity:1"/><rect id="rect1919" width="222.345" height="44.646" x="867.363" y="1548.427" style="fill:#fad7ac;fill-opacity:1;stroke:#000;stroke-opacity:1"/><rect id="rect1921" width="222.345" height="44.646" x="867.363" y="1614.427" style="fill:#eee;fill-opacity:1;stroke:#000;stroke-opacity:1"/><rect id="rect1923" width="222.345" height="44.646" x="867.363" y="1686.427" style="fill:#eee;fill-opacity:1;stroke:#000;stroke-opacity:1"/><rect id="rect1925" width="222.345" height="44.646" x="867.363" y="1754.427" style="fill:#eee;fill-opacity:1;stroke:#000;stroke-opacity:1"/><rect id="rect1925-3" width="169.234" height="44.679" x="325.217" y="134.378" style="fill:#f9f7ed;fill-opacity:1;stroke:#000;stroke-width:.872749;stroke-opacity:1"/><rect id="rect1954" width="169.234" height="44.679" x="325.217" y="276.378" style="fill:#fad7ac;fill-opacity:1;stroke:#000;stroke-width:.872749;stroke-opacity:1"/><rect id="rect1956" width="168.666" height="122.141" x="325.501" y="358.661" style="fill:#afdde9;fill-opacity:1;stroke:#000;stroke-width:.87333333;stroke-opacity:1;stroke-miterlimit:4;stroke-dasharray:none"/><rect id="rect1958" width="169.234" height="44.679" x="325.217" y="672.378" style="fill:#e6e6e6;fill-opacity:1;stroke:#000;stroke-width:.872749;stroke-opacity:1"/><rect id="rect1960" width="169.234" height="44.679" x="325.217" y="744.378" style="fill:#fad7ac;fill-opacity:1;stroke:#000;stroke-width:.872749;stroke-opacity:1"/><rect id="rect1962" width="169.14" height="54.757" x="325.264" y="814.424" style="fill:#afdde9;fill-opacity:1;stroke:#000;stroke-width:.965912;stroke-opacity:1"/><rect id="rect1964" width="169.14" height="54.757" x="325.264" y="886.424" style="fill:#d0cee2;fill-opacity:1;stroke:#000;stroke-width:.965912;stroke-opacity:1"/><rect id="rect1966" width="169.14" height="54.757" x="325.264" y="952.424" style="fill:#afdde9;fill-opacity:1;stroke:#000;stroke-width:.965912;stroke-opacity:1"/><rect id="rect2418" width="169.234" height="44.679" x="325.217" y="510.378" style="fill:#fad7ac;fill-opacity:1;stroke:#000;stroke-width:.872749;stroke-opacity:1"/><rect id="rect2422" width="169.234" height="44.679" x="325.217" y="1262.378" style="fill:#fad7ac;fill-opacity:1;stroke:#000;stroke-width:.872749;stroke-opacity:1"/><rect id="rect2424" width="169.125" height="56.529" x="325.272" y="1322.432" style="fill:#afdde9;fill-opacity:1;stroke:#000;stroke-width:.981369;stroke-opacity:1"/><rect id="rect2426" width="169.125" height="56.529" x="325.272" y="1396.432" style="fill:#d0cee2;fill-opacity:1;stroke:#000;stroke-width:.981369;stroke-opacity:1"/><rect id="rect2428" width="169.085" height="61.19" x="325.292" y="1468.452" style="fill:#afdde9;fill-opacity:1;stroke:#000;stroke-width:1.02091;stroke-opacity:1"/><rect id="rect2430" width="169.267" height="41.344" x="325.201" y="1550.361" style="fill:#fad7ac;fill-opacity:1;stroke:#000;stroke-width:.839627;stroke-opacity:1"/><rect id="rect2432" width="287.862" height="44.417" x="325.349" y="1194.509" style="fill:#000;fill-opacity:0;stroke:#000;stroke-width:1.13491;stroke-opacity:1"/><rect id="rect2434" width="285.867" height="44.421" x="867.347" y="1194.507" style="fill:#000;fill-opacity:0;stroke:#000;stroke-width:1.13102;stroke-opacity:1"/><path id="path2509" d="m 867.36292,235.07281 v 0" style="fill:none;stroke:#000;stroke-width:2.66666675;stroke-linecap:butt;stroke-linejoin:miter;stroke-opacity:1;stroke-miterlimit:4;stroke-dasharray:8.00000024,8.00000024;stroke-dashoffset:0"/><path id="path2511" d="m 867.36292,235.07281 v 0" style="fill:none;stroke:#000;stroke-width:2.66666675;stroke-linecap:butt;stroke-linejoin:miter;stroke-opacity:1;stroke-miterlimit:4;stroke-dasharray:8.00000024,8.00000024;stroke-dashoffset:0"/><path id="path2513" d="m 867.36292,235.07281 v 0" style="fill:none;stroke:#000;stroke-width:2.66666675;stroke-linecap:butt;stroke-linejoin:miter;stroke-opacity:1;stroke-miterlimit:4;stroke-dasharray:8.00000024,8.00000024;stroke-dashoffset:0"/><path id="path2515" d="m 867.36292,235.07281 v 0" style="fill:none;stroke:#000;stroke-width:2.66666675;stroke-linecap:butt;stroke-linejoin:miter;stroke-opacity:1;stroke-miterlimit:4;stroke-dasharray:8.00000024,8.00000024;stroke-dashoffset:0"/><path id="path2517" d="m 867.36292,235.07281 v 0" style="fill:none;stroke:#000;stroke-width:2.66666675;stroke-linecap:butt;stroke-linejoin:miter;stroke-opacity:1;stroke-miterlimit:4;stroke-dasharray:8.00000024,8.00000024;stroke-dashoffset:0"/><path id="path2519" d="m 867.36292,235.07281 v 0" style="fill:none;stroke:#000;stroke-width:2.66666675;stroke-linecap:butt;stroke-linejoin:miter;stroke-opacity:1;stroke-miterlimit:4;stroke-dasharray:8.00000024,8.00000024;stroke-dashoffset:0"/><path id="path2521" d="m 867.36292,235.07281 v 0" style="fill:none;stroke:#000;stroke-width:2.66666675;stroke-linecap:butt;stroke-linejoin:miter;stroke-opacity:1;stroke-miterlimit:4;stroke-dasharray:8.00000024,8.00000024;stroke-dashoffset:0"/><path id="path2523" d="m 867.36292,235.07281 v 0" style="fill:none;stroke:#000;stroke-width:2.66666675;stroke-linecap:butt;stroke-linejoin:miter;stroke-opacity:1;stroke-miterlimit:4;stroke-dasharray:8.00000024,8.00000024;stroke-dashoffset:0"/><path id="path2525" d="m 867.36292,235.07281 v 0" style="fill:none;stroke:#000;stroke-width:2.66666675;stroke-linecap:butt;stroke-linejoin:miter;stroke-opacity:1;stroke-miterlimit:4;stroke-dasharray:8.00000024,8.00000024;stroke-dashoffset:0"/><path id="path2527" d="m 867.36292,235.07281 v 0" style="fill:none;stroke:#000;stroke-width:2.66666675;stroke-linecap:butt;stroke-linejoin:miter;stroke-opacity:1;stroke-miterlimit:4;stroke-dasharray:8.00000024,8.00000024;stroke-dashoffset:0"/><path id="path2529" d="m 867.36292,235.07281 v 0" style="fill:none;stroke:#000;stroke-width:2.66666675;stroke-linecap:butt;stroke-linejoin:miter;stroke-opacity:1;stroke-miterlimit:4;stroke-dasharray:8.00000024,8.00000024;stroke-dashoffset:0"/><path id="path2531" d="m 867.36292,235.07281 v 0" style="fill:none;stroke:#000;stroke-width:2.66666675;stroke-linecap:butt;stroke-linejoin:miter;stroke-opacity:1;stroke-miterlimit:4;stroke-dasharray:8.00000024,8.00000024;stroke-dashoffset:0"/><path id="path6876" d="m 449.83425,179.05653 v 33.6932 h 417.52867" style="fill:none;fill-rule:evenodd;stroke:#000;stroke-width:2;stroke-linecap:butt;stroke-linejoin:miter;stroke-miterlimit:4;stroke-dasharray:6,6;stroke-dashoffset:0;stroke-opacity:1"/><path id="path6878" d="m 494.45103,156.71704 h 216.64955 v 161.7096 h 156.26234" style="display:inline;fill:none;fill-rule:evenodd;stroke:#000;stroke-width:2;stroke-linecap:butt;stroke-linejoin:miter;stroke-miterlimit:4;stroke-dasharray:6,6;stroke-dashoffset:0;stroke-opacity:1"/><path id="path7294" d="m 451.83425,321.05653 v 19.69319 h 415.52867" style="fill:none;fill-rule:evenodd;stroke:#000;stroke-width:2;stroke-linecap:butt;stroke-linejoin:miter;stroke-miterlimit:4;stroke-dasharray:6,6;stroke-dashoffset:0;stroke-opacity:1"/><path id="path7296" d="M 494.45103,298.71704 H 659.10058 V 434.74972 H 867.36292" style="fill:none;fill-rule:evenodd;stroke:#000;stroke-width:2;stroke-linecap:butt;stroke-linejoin:miter;stroke-miterlimit:4;stroke-dasharray:6,6;stroke-dashoffset:0;stroke-opacity:1"/><path id="path7720" d="M 867.36292,560.42664 H 661.10058 V 480.8024 H 494.16705" style="display:inline;fill:none;fill-rule:evenodd;stroke:#000;stroke-width:2;stroke-linecap:butt;stroke-linejoin:miter;stroke-miterlimit:4;stroke-dasharray:6,6;stroke-dashoffset:0;stroke-opacity:1"/><path id="path7724" d="M 455.83425,594.37756 V 582.74972 H 867.36292" style="fill:none;fill-rule:evenodd;stroke:#000;stroke-width:2;stroke-linecap:butt;stroke-linejoin:miter;stroke-miterlimit:4;stroke-dasharray:6,6;stroke-dashoffset:0;stroke-opacity:1"/><rect id="rect2420" width="169.234" height="44.679" x="325.217" y="594.378" style="fill:#afdde9;fill-opacity:1;stroke:#000;stroke-width:.872749;stroke-opacity:1"/><path id="path7726" d="M 494.45103,696.74972 H 867.36292" style="fill:none;fill-rule:evenodd;stroke:#000;stroke-width:2;stroke-linecap:butt;stroke-linejoin:miter;stroke-miterlimit:4;stroke-dasharray:6,6;stroke-dashoffset:0;stroke-opacity:1"/><path id="path7728" d="M 867.36292,766.74972 H 494.45103" style="fill:none;fill-rule:evenodd;stroke:#000;stroke-width:2;stroke-linecap:butt;stroke-linejoin:miter;stroke-miterlimit:4;stroke-dasharray:6,6;stroke-dashoffset:0;stroke-opacity:1"/><path id="path7730" d="M 494.45105,789.05652 H 657.82418 V 1278.7498 H 867.36292" style="display:inline;fill:none;fill-rule:evenodd;stroke:#000;stroke-width:2;stroke-linecap:butt;stroke-linejoin:miter;stroke-miterlimit:4;stroke-dasharray:6,6;stroke-dashoffset:0;stroke-opacity:1"/><path id="path8140" d="m 494.40445,841.80254 h 167.41973 v 0.94718 h 205.53874" style="fill:none;fill-rule:evenodd;stroke:#000;stroke-width:2;stroke-linecap:butt;stroke-linejoin:miter;stroke-miterlimit:4;stroke-dasharray:6,6;stroke-dashoffset:0;stroke-opacity:1"/><path id="path8142" d="m 494.40445,913.80254 h 167.41973 v -1.05282 h 205.53874" style="fill:none;fill-rule:evenodd;stroke:#000;stroke-width:2;stroke-linecap:butt;stroke-linejoin:miter;stroke-miterlimit:4;stroke-dasharray:6,6;stroke-dashoffset:0;stroke-opacity:1"/><path id="path8144" d="m 494.40445,979.80254 h 167.41973 v -1.05282 h 205.53874" style="fill:none;fill-rule:evenodd;stroke:#000;stroke-width:2;stroke-linecap:butt;stroke-linejoin:miter;stroke-miterlimit:4;stroke-dasharray:6,6;stroke-dashoffset:0;stroke-opacity:1"/><path id="path8146" d="M 494.39673,1352.7498 H 867.36292" style="fill:none;fill-rule:evenodd;stroke:#000;stroke-width:2;stroke-linecap:butt;stroke-linejoin:miter;stroke-miterlimit:4;stroke-dasharray:6,6;stroke-dashoffset:0;stroke-opacity:1"/><path id="path8148" d="M 494.39673,1424.7498 H 867.36292" style="fill:none;fill-rule:evenodd;stroke:#000;stroke-width:2;stroke-linecap:butt;stroke-linejoin:miter;stroke-miterlimit:4;stroke-dasharray:6,6;stroke-dashoffset:0;stroke-opacity:1"/><path id="path8150" d="M 494.37697,1500.7498 H 867.36292" style="fill:none;fill-rule:evenodd;stroke:#000;stroke-width:2;stroke-linecap:butt;stroke-linejoin:miter;stroke-miterlimit:4;stroke-dasharray:6,6;stroke-dashoffset:0;stroke-opacity:1"/><path id="path8152" d="m 494.46762,1570.7498 h 372.8953" style="fill:none;fill-rule:evenodd;stroke:#000;stroke-width:2;stroke-linecap:butt;stroke-linejoin:miter;stroke-miterlimit:4;stroke-dasharray:6,6;stroke-dashoffset:0;stroke-opacity:1"/><path id="path8154" d="M 1396.3848,1289.175 H 1288.1445 V 582.74972 h -198.4368" style="fill:none;fill-rule:evenodd;stroke:#000;stroke-width:2;stroke-linecap:butt;stroke-linejoin:miter;stroke-miterlimit:4;stroke-dasharray:6,6;stroke-dashoffset:0;stroke-opacity:1"/><path id="path8462" d="m 1396.3848,1369.175 h -156.2403 v -90.4252 h -150.4368" style="fill:none;fill-rule:evenodd;stroke:#000;stroke-width:2;stroke-linecap:butt;stroke-linejoin:miter;stroke-miterlimit:4;stroke-dasharray:6,6;stroke-dashoffset:0;stroke-opacity:1"/><path id="path8668" d="m 1089.7077,1500.7498 h 375.3403 v -26.6834" style="fill:none;fill-rule:evenodd;stroke:#000;stroke-width:2;stroke-linecap:butt;stroke-linejoin:miter;stroke-miterlimit:4;stroke-dasharray:6,6;stroke-dashoffset:0;stroke-opacity:1"/><path id="path8672" d="M 1389.9988,212.74973 H 1089.7077" style="fill:none;fill-rule:evenodd;stroke:#000;stroke-width:2;stroke-linecap:butt;stroke-linejoin:miter;stroke-miterlimit:4;stroke-dasharray:6,6;stroke-dashoffset:0;stroke-opacity:1"/><path id="path8674" d="M 1389.9988,230.9507 H 1223.331 v 109.79902 h -133.6233" style="display:inline;fill:none;fill-rule:evenodd;stroke:#000;stroke-width:2;stroke-linecap:butt;stroke-linejoin:miter;stroke-miterlimit:4;stroke-dasharray:6,6;stroke-dashoffset:0;stroke-opacity:1"/><text id="text31913" x="56.388" y="221.866" xml:space="preserve" style="font-style:normal;font-weight:400;font-size:18.6667px;line-height:1.25;font-family:sans-serif;fill:#000;fill-opacity:1;stroke:none"><tspan id="tspan31911" x="56.388" y="221.866">Matrix</tspan></text><text id="text38843" x="53.441" y="300.866" xml:space="preserve" style="font-style:normal;font-weight:400;font-size:18.6667px;line-height:1.25;font-family:sans-serif;fill:#000;fill-opacity:1;stroke:none"><tspan id="tspan38841" x="53.441" y="300.866">1D LUT</tspan></text><text id="text41049" x="53.441" y="378.866" xml:space="preserve" style="font-style:normal;font-weight:400;font-size:18.6667px;line-height:1.25;font-family:sans-serif;fill:#000;fill-opacity:1;stroke:none"><tspan id="tspan41047" x="53.441" y="378.866">3D LUT</tspan></text><text id="text45037" x="40.831" y="460.874" xml:space="preserve" style="font-style:normal;font-weight:400;font-size:18.6667px;line-height:1.25;font-family:sans-serif;fill:#000;fill-opacity:1;stroke:none"><tspan style="font-size:18.6667px" id="tspan45035" x="40.831" y="460.874">Unpacking</tspan></text><text id="text49945" x="62.13" y="540.689" xml:space="preserve" style="font-style:normal;font-weight:400;font-size:18.6667px;line-height:1.25;font-family:sans-serif;fill:#000;fill-opacity:1;stroke:none"><tspan style="font-size:18.6667px" id="tspan49943" x="62.13" y="540.689">Other</tspan></text><text id="text55719" x="1423.281" y="128.088" xml:space="preserve" style="font-style:normal;font-weight:400;font-size:18.6667px;line-height:1.25;font-family:sans-serif;fill:#000;fill-opacity:1;stroke:none"><tspan style="font-size:18.6667px" id="tspan55717" x="1423.281" y="128.088">drm_framebuffer</tspan></text><text id="text62479" x="1439.999" y="218.75" xml:space="preserve" style="font-style:normal;font-weight:400;font-size:18.6667px;line-height:1.25;font-family:sans-serif;fill:#000;fill-opacity:1;stroke:none"><tspan style="font-size:18.6667px" id="tspan62477" x="1439.999" y="218.75">format</tspan></text><text id="text64465" x="1475.281" y="340.088" xml:space="preserve" style="font-style:normal;font-weight:400;font-size:18.6667px;line-height:1.25;font-family:sans-serif;fill:#000;fill-opacity:1;stroke:none"><tspan style="font-size:18.6667px" id="tspan64463" x="1475.281" y="340.088">drm_plane</tspan></text><text id="text64469" x="1589.281" y="1178.088" xml:space="preserve" style="font-style:normal;font-weight:400;font-size:18.6667px;line-height:1.25;font-family:sans-serif;fill:#000;fill-opacity:1;stroke:none"><tspan style="font-size:18.6667px" id="tspan64467" x="1589.281" y="1178.088">drm_crtc</tspan></text><text id="text64469-9" x="872.24" y="1172.449" xml:space="preserve" style="font-style:normal;font-weight:400;font-size:18.6667px;line-height:1.25;font-family:sans-serif;fill:#000;fill-opacity:1;stroke:none"><tspan style="font-size:18.6667px" id="tspan64467-2" x="872.24" y="1172.449">Stream</tspan></text><text id="text64469-9-2" x="328.261" y="1175.637" xml:space="preserve" style="font-style:normal;font-weight:400;font-size:18.6667px;line-height:1.25;font-family:sans-serif;fill:#000;fill-opacity:1;stroke:none"><tspan style="font-size:18.6667px" id="tspan64467-2-8" x="328.261" y="1175.637">MPC</tspan></text><text id="text64469-9-9" x="330.147" y="114.419" xml:space="preserve" style="font-style:normal;font-weight:400;font-size:18.6667px;line-height:1.25;font-family:sans-serif;fill:#000;fill-opacity:1;stroke:none"><tspan style="font-size:18.6667px" id="tspan64467-2-7" x="330.147" y="114.419">DPP</tspan></text><path style="stroke-width:.205176" id="path106" d="m 1488.3608,401.47792 c 0.025,10.97895 0.01,773.03788 0.049,784.01888 2.5462,-1.1592 5.0637,-2.3779 7.6202,-3.5187 -2.7411,4.8298 -5.4987,9.6453 -8.2624,14.4607 -2.7925,-4.8257 -5.5993,-9.6453 -8.3856,-14.4751 2.6221,1.1736 5.2217,2.3923 7.8398,3.5721 0,-10.8825 -0.035,-772.84093 -0.031,-783.72345 0.053,-0.30366 -0.2175,-0.50268 -0.3652,-0.72837 l 1.5347,0.39394 z"/><text id="text78849" x="1495.999" y="1224.75" xml:space="preserve" style="font-style:normal;font-weight:400;font-size:18.6667px;line-height:1.25;font-family:sans-serif;fill:#000;fill-opacity:1;stroke:none"><tspan style="font-size:18.6667px" id="tspan78847" x="1495.999" y="1224.75">Blender</tspan></text><text id="text78853" x="1417.999" y="1294.75" xml:space="preserve" style="font-style:normal;font-weight:400;font-size:18.6667px;line-height:1.25;font-family:sans-serif;fill:#000;fill-opacity:1;stroke:none"><tspan style="font-size:18.6667px" id="tspan78851" x="1417.999" y="1294.75">Degamma</tspan></text><text id="text78857" x="1451.999" y="1376.75" xml:space="preserve" style="font-style:normal;font-weight:400;font-size:18.6667px;line-height:1.25;font-family:sans-serif;fill:#000;fill-opacity:1;stroke:none"><tspan style="font-size:18.6667px" id="tspan78855" x="1451.999" y="1376.75">CTM</tspan></text><text id="text78861" x="1427.999" y="1458.75" xml:space="preserve" style="font-style:normal;font-weight:400;font-size:18.6667px;line-height:1.25;font-family:sans-serif;fill:#000;fill-opacity:1;stroke:none"><tspan style="font-size:18.6667px" id="tspan78859" x="1427.999" y="1458.75">Gamma</tspan></text><text id="text104653" x="949.999" y="218.75" xml:space="preserve" style="font-style:normal;font-weight:400;font-size:18.6667px;line-height:1.25;font-family:sans-serif;fill:#000;fill-opacity:1;stroke:none"><tspan style="font-size:18.6667px" id="tspan104651" x="949.999" y="218.75">format</tspan></text><text id="text104657" x="911.999" y="284.75" xml:space="preserve" style="font-style:normal;font-weight:400;font-size:18.6667px;line-height:1.25;font-family:sans-serif;fill:#000;fill-opacity:1;stroke:none"><tspan style="font-size:18.6667px" id="tspan104655" x="911.999" y="284.75">bias_and_scale</tspan></text><text id="text104661" x="887.999" y="346.75" xml:space="preserve" style="font-style:normal;font-weight:400;font-size:18.6667px;line-height:1.25;font-family:sans-serif;fill:#000;fill-opacity:1;stroke:none"><tspan style="font-size:18.6667px" id="tspan104659" x="887.999" y="346.75">color space matrix</tspan></text><text id="text104665" x="871.999" y="442.75" xml:space="preserve" style="font-style:normal;font-weight:400;font-size:18.6667px;line-height:1.25;font-family:sans-serif;fill:#000;fill-opacity:1;stroke:none"><tspan style="font-size:18.6667px" id="tspan104663" x="871.999" y="442.75">input_csc_color_matrix</tspan></text><text id="text125075" x="905.999" y="586.75" xml:space="preserve" style="font-style:normal;font-weight:400;font-size:18.6667px;line-height:1.25;font-family:sans-serif;fill:#000;fill-opacity:1;stroke:none"><tspan style="font-size:18.6667px" id="tspan125073" x="905.999" y="586.75">in_transfer_func</tspan></text><text id="text117309" x="945.008" y="702.859" xml:space="preserve" style="font-style:normal;font-weight:400;font-size:18.6667px;line-height:1.25;font-family:sans-serif;fill:#000;fill-opacity:1;stroke:none"><tspan style="font-size:18.6667px" id="tspan117307" x="945.008" y="702.859">hdr_mult</tspan></text><text id="text117309-6" x="874.556" y="773.426" xml:space="preserve" style="font-style:normal;font-weight:400;font-size:18.6667px;line-height:1.25;font-family:sans-serif;fill:#000;fill-opacity:1;stroke:none"><tspan style="font-size:18.6667px" id="tspan117307-7" x="874.556" y="773.426">gamut_remap_matrix</tspan></text><text id="text117309-5" x="913.725" y="846.559" xml:space="preserve" style="font-style:normal;font-weight:400;font-size:18.6667px;line-height:1.25;font-family:sans-serif;fill:#000;fill-opacity:1;stroke:none"><tspan style="font-size:18.6667px" id="tspan117307-3" x="913.725" y="846.559">in_shaper_func</tspan></text><text id="text117309-56" x="937.725" y="918.258" xml:space="preserve" style="font-style:normal;font-weight:400;font-size:18.6667px;line-height:1.25;font-family:sans-serif;fill:#000;fill-opacity:1;stroke:none"><tspan style="font-size:18.6667px" id="tspan117307-2" x="937.725" y="918.258">lut3d_func</tspan></text><text id="text117309-9" x="945.99" y="986.108" xml:space="preserve" style="font-style:normal;font-weight:400;font-size:18.6667px;line-height:1.25;font-family:sans-serif;fill:#000;fill-opacity:1;stroke:none"><tspan style="font-size:18.6667px" id="tspan117307-1" x="945.99" y="986.108">blend_tf</tspan></text><text id="text137434" x="975.918" y="1224.556" xml:space="preserve" style="font-style:normal;font-weight:400;font-size:18.6667px;line-height:1.25;font-family:sans-serif;fill:#000;fill-opacity:1;stroke:none"><tspan style="font-size:18.6667px" id="tspan137432" x="975.918" y="1224.556">Blender</tspan></text><text id="text137434-2" x="879.314" y="1283.425" xml:space="preserve" style="font-style:normal;font-weight:400;font-size:18.6667px;line-height:1.25;font-family:sans-serif;fill:#000;fill-opacity:1;stroke:none"><tspan style="font-size:18.6667px" id="tspan137432-7" x="879.314" y="1283.425">gamut_remap_matrix</tspan></text><text id="text137434-0" x="925.314" y="1359.275" xml:space="preserve" style="font-style:normal;font-weight:400;font-size:18.6667px;line-height:1.25;font-family:sans-serif;fill:#000;fill-opacity:1;stroke:none"><tspan style="font-size:18.6667px" id="tspan137432-9" x="925.314" y="1359.275">func_shaper</tspan></text><text id="text137434-3" x="930.333" y="1430.257" xml:space="preserve" style="font-style:normal;font-weight:400;font-size:18.6667px;line-height:1.25;font-family:sans-serif;fill:#000;fill-opacity:1;stroke:none"><tspan style="font-size:18.6667px" id="tspan137432-6" x="930.333" y="1430.257">lut3d_func</tspan></text><text id="text137434-06" x="900.182" y="1504.672" xml:space="preserve" style="font-style:normal;font-weight:400;font-size:18.6667px;line-height:1.25;font-family:sans-serif;fill:#000;fill-opacity:1;stroke:none"><tspan style="font-size:18.6667px" id="tspan137432-2" x="900.182" y="1504.672">out_transfer_func</tspan></text><text id="text137434-6" x="904.031" y="1575.805" xml:space="preserve" style="font-style:normal;font-weight:400;font-size:18.6667px;line-height:1.25;font-family:sans-serif;fill:#000;fill-opacity:1;stroke:none"><tspan style="font-size:18.6667px" id="tspan137432-1" x="904.031" y="1575.805">csc_color_matrix</tspan></text><text id="text137434-8" x="903.163" y="1642.108" xml:space="preserve" style="font-style:normal;font-weight:400;font-size:18.6667px;line-height:1.25;font-family:sans-serif;fill:#000;fill-opacity:1;stroke:none"><tspan style="font-size:18.6667px" id="tspan137432-79" x="903.163" y="1642.108">bit_depth_param</tspan></text><text id="text137434-20" x="939.314" y="1713.807" xml:space="preserve" style="font-style:normal;font-weight:400;font-size:18.6667px;line-height:1.25;font-family:sans-serif;fill:#000;fill-opacity:1;stroke:none"><tspan style="font-size:18.6667px" id="tspan137432-23" x="939.314" y="1713.807">clamping</tspan></text><text id="text137434-7" x="894.031" y="1782.524" xml:space="preserve" style="font-style:normal;font-weight:400;font-size:18.6667px;line-height:1.25;font-family:sans-serif;fill:#000;fill-opacity:1;stroke:none"><tspan style="font-size:18.6667px" id="tspan137432-5" x="894.031" y="1782.524">output_color_space</tspan></text><text id="text176429" x="869.631" y="117.797" xml:space="preserve" style="font-style:normal;font-weight:400;font-size:18.6667px;line-height:1.25;font-family:sans-serif;fill:#000;fill-opacity:1;stroke:none"><tspan style="font-size:18.6667px" id="tspan176427" x="869.631" y="117.797">Plane</tspan></text><text id="text176429-2" x="27.605" y="162.206" xml:space="preserve" style="font-style:normal;font-weight:400;font-size:18.6667px;line-height:1.25;font-family:sans-serif;fill:#000;fill-opacity:1;stroke:none"><tspan style="font-size:18.6667px" id="tspan176427-0" x="27.605" y="162.206">Legend</tspan></text><text id="text176429-9" x="298.64" y="59.294" xml:space="preserve" style="font-style:normal;font-weight:400;font-size:18.6667px;line-height:1.25;font-family:sans-serif;fill:#000;fill-opacity:1;stroke:none"><tspan style="font-size:18.6667px" id="tspan176427-2" x="298.64" y="59.294">DCN 3.0</tspan></text><text id="text176429-66" x="826.657" y="59.458" xml:space="preserve" style="font-style:normal;font-weight:400;font-size:18.6667px;line-height:1.25;font-family:sans-serif;fill:#000;fill-opacity:1;stroke:none"><tspan style="font-size:18.6667px" id="tspan176427-4" x="826.657" y="59.458">DC Interface</tspan></text><text id="text176429-95" x="1362.995" y="59.458" xml:space="preserve" style="font-style:normal;font-weight:400;font-size:18.6667px;line-height:1.25;font-family:sans-serif;fill:#000;fill-opacity:1;stroke:none"><tspan style="font-size:18.6667px" id="tspan176427-04" x="1362.995" y="59.458">DRM Interface</tspan></text><text id="text64469-9-3" x="389.016" y="159.891" xml:space="preserve" style="font-style:normal;font-weight:400;font-size:18.6667px;line-height:1.25;font-family:sans-serif;fill:#000;fill-opacity:1;stroke:none"><tspan style="font-size:18.6667px" id="tspan64467-2-6" x="389.016" y="159.891">CNVC</tspan></text><text id="text64469-9-1" x="365.884" y="303.59" xml:space="preserve" style="font-style:normal;font-weight:400;font-size:18.6667px;line-height:1.25;font-family:sans-serif;fill:#000;fill-opacity:1;stroke:none"><tspan style="font-size:18.6667px" id="tspan64467-2-2" x="365.884" y="303.59">Input CSC</tspan></text><text id="text64469-9-93" x="413.065" y="390.95" xml:space="preserve" style="font-style:normal;font-weight:400;font-size:18.6667px;line-height:1.25;font-family:sans-serif;fill:#000;fill-opacity:1;stroke:none"><tspan style="font-size:18.6667px;text-align:center;text-anchor:middle" id="tspan64467-2-1" x="413.065" y="390.95">DeGamma</tspan><tspan id="tspan233797" x="413.065" y="414.283" style="font-size:18.6667px;text-align:center;text-anchor:middle">ROM</tspan><tspan id="tspan233799" x="413.065" y="437.617" style="font-size:10.6667px;text-align:center;text-anchor:middle">(sRGB, BT2020, Gamma 2.2,</tspan><tspan id="tspan242597" x="413.065" y="460.95" style="font-size:10.6667px;text-align:center;text-anchor:middle">PQ, HLG)</tspan></text><text id="text64469-9-94" x="372.45" y="538.838" xml:space="preserve" style="font-style:normal;font-weight:400;font-size:18.6667px;line-height:1.25;font-family:sans-serif;fill:#000;fill-opacity:1;stroke:none"><tspan style="font-size:18.6667px" id="tspan64467-2-78" x="372.45" y="538.838">Post CSC</tspan></text><text id="text64469-9-4" x="335.318" y="622.235" xml:space="preserve" style="font-style:normal;font-weight:400;font-size:16px;line-height:1.25;font-family:sans-serif;fill:#000;fill-opacity:1;stroke:none"><tspan style="font-size:16px" id="tspan64467-2-5" x="335.318" y="622.235">Gamma Correction</tspan></text><text id="text64469-9-0" x="351.167" y="700.349" xml:space="preserve" style="font-style:normal;font-weight:400;font-size:18.6667px;line-height:1.25;font-family:sans-serif;fill:#000;fill-opacity:1;stroke:none"><tspan style="font-size:18.6667px" id="tspan64467-2-3" x="351.167" y="700.349">HDR Multiply</tspan></text><text id="text64469-9-6" x="345.167" y="771.331" xml:space="preserve" style="font-style:normal;font-weight:400;font-size:18.6667px;line-height:1.25;font-family:sans-serif;fill:#000;fill-opacity:1;stroke:none"><tspan style="font-size:18.6667px" id="tspan64467-2-10" x="345.167" y="771.331">Gamut Remap</tspan></text><text id="text64469-9-63" x="412.518" y="836.049" xml:space="preserve" style="font-style:normal;font-weight:400;font-size:18.6667px;line-height:1.25;font-family:sans-serif;fill:#000;fill-opacity:1;stroke:none"><tspan style="font-size:18.6667px;text-align:center;text-anchor:middle" id="tspan64467-2-20" x="412.518" y="836.049">Shaper LUT</tspan><tspan id="tspan222533" x="412.518" y="859.382" style="font-size:18.6667px;text-align:center;text-anchor:middle">RAM</tspan></text><text id="text64469-9-61" x="413.541" y="908.616" xml:space="preserve" style="font-style:normal;font-weight:400;font-size:18.6667px;line-height:1.25;font-family:sans-serif;fill:#000;fill-opacity:1;stroke:none"><tspan style="font-size:18.6667px;text-align:center;text-anchor:middle" id="tspan64467-2-55" x="413.541" y="908.616">3D LUT</tspan><tspan id="tspan221121" x="413.541" y="931.949" style="font-size:18.6667px;text-align:center;text-anchor:middle">RAM</tspan></text><text id="text64469-9-47" x="344.035" y="985.333" xml:space="preserve" style="font-style:normal;font-weight:400;font-size:18.6667px;line-height:1.25;font-family:sans-serif;fill:#000;fill-opacity:1;stroke:none"><tspan style="font-size:18.6667px" id="tspan64467-2-65" x="344.035" y="985.333">Blend Gamma</tspan></text><text id="text64469-9-69" x="433.846" y="1223.411" xml:space="preserve" style="font-style:normal;font-weight:400;font-size:18.6667px;line-height:1.25;font-family:sans-serif;fill:#000;fill-opacity:1;stroke:none"><tspan style="font-size:18.6667px" id="tspan64467-2-37" x="433.846" y="1223.411">Blender</tspan></text><text id="text64469-9-45" x="343.733" y="1290.242" xml:space="preserve" style="font-style:normal;font-weight:400;font-size:18.6667px;line-height:1.25;font-family:sans-serif;fill:#000;fill-opacity:1;stroke:none"><tspan style="font-size:18.6667px" id="tspan64467-2-25" x="343.733" y="1290.242">Gamut Remap</tspan></text><text id="text64469-9-474" x="408.744" y="1344.243" xml:space="preserve" style="font-style:normal;font-weight:400;font-size:18.6667px;line-height:1.25;font-family:sans-serif;fill:#000;fill-opacity:1;stroke:none"><tspan style="font-size:18.6667px;text-align:center;text-anchor:middle" id="tspan64467-2-4" x="408.744" y="1344.243">Shaper LUT</tspan><tspan id="tspan208303" x="408.744" y="1367.576" style="font-size:18.6667px;text-align:center;text-anchor:middle">RAM</tspan></text><text id="text64469-9-30" x="407.126" y="1420.244" xml:space="preserve" style="font-style:normal;font-weight:400;font-size:18.6667px;line-height:1.25;font-family:sans-serif;fill:#000;fill-opacity:1;stroke:none"><tspan style="font-size:18.6667px;text-align:center;text-anchor:middle" id="tspan64467-2-786" x="407.126" y="1420.244">3D LUT</tspan><tspan id="tspan204749" x="407.126" y="1443.577" style="font-size:18.6667px;text-align:center;text-anchor:middle">RAM</tspan></text><text id="text64469-9-8" x="408.65" y="1492.81" xml:space="preserve" style="font-style:normal;font-weight:400;font-size:18.6667px;line-height:1.25;font-family:sans-serif;fill:#000;fill-opacity:1;stroke:none"><tspan style="font-size:18.6667px;text-align:center;text-anchor:middle" id="tspan64467-2-84" x="408.65" y="1492.81">Gamma</tspan><tspan id="tspan197733" x="408.65" y="1516.144" style="font-size:18.6667px;text-align:center;text-anchor:middle">RAM</tspan></text><text id="text64469-9-31" x="385.469" y="1575.226" xml:space="preserve" style="font-style:normal;font-weight:400;font-size:18.6667px;line-height:1.25;font-family:sans-serif;fill:#000;fill-opacity:1;stroke:none"><tspan style="font-size:18.6667px" id="tspan64467-2-49" x="385.469" y="1575.226">OCSC</tspan></text><rect id="rect1411" width="177.28" height="38.94" x="1392.258" y="459.241" style="fill:#f9f7ed;fill-opacity:1;stroke:#000;stroke-opacity:1"/><text id="text78841" x="1411.72" y="485.932" xml:space="preserve" style="font-style:normal;font-weight:400;font-size:18.6667px;line-height:1.25;font-family:sans-serif;fill:#000;fill-opacity:1;stroke:none"><tspan style="font-size:18.6667px" id="tspan78839" x="1411.72" y="485.932">color_encoding</tspan></text><rect id="rect1515" width="175.119" height="43.239" x="1393.749" y="525.698" style="fill:#f9f7ed;fill-opacity:1;stroke:#000;stroke-opacity:1"/><text id="text78845" x="1399.212" y="553.449" xml:space="preserve" style="font-style:normal;font-weight:400;font-size:17.3333px;line-height:1.25;font-family:sans-serif;fill:#000;fill-opacity:1;stroke:none"><tspan id="tspan78843" x="1399.212" y="553.449">pixel_blend_mode</tspan></text><rect id="rect371322" width="177.28" height="38.94" x="1391.678" y="385.617" style="fill:#f9f7ed;fill-opacity:1;stroke:#000;stroke-opacity:1"/><text id="text78837" x="1427.577" y="409.295" xml:space="preserve" style="font-style:normal;font-weight:400;font-size:18.6667px;line-height:1.25;font-family:sans-serif;fill:#000;fill-opacity:1;stroke:none"><tspan style="font-size:18.6667px" id="tspan78835" x="1427.577" y="409.295">color_range</tspan></text><path style="stroke-width:.262672" id="path371636-7" d="m 1469.6815,1334.9145 c 3.2597,-1.4841 6.4827,-3.0444 9.7556,-4.5049 -3.5093,6.1834 -7.0396,12.3483 -10.5778,18.5131 -3.575,-6.178 -7.1683,-12.3481 -10.7354,-18.5314 3.3569,1.5025 6.685,3.0627 10.0367,4.5731 0,0 0,0 1.5209,-0.05 z"/><path style="stroke-width:.262672" id="path371636-7-2" d="m 1467.8882,1256.0056 c 3.2597,-1.4841 6.4827,-3.0443 9.7556,-4.5048 -3.5093,6.1833 -7.0396,12.3482 -10.5778,18.5131 -3.575,-6.178 -7.1683,-12.3482 -10.7354,-18.5315 3.3569,1.5025 6.685,3.0628 10.0367,4.5731 0,0 0,0 1.5209,-0.05 z"/><path style="stroke-width:.262672" id="path371636-7-7" d="m 1487.6154,441.80981 c 3.2597,-1.48411 6.4827,-3.04435 9.7556,-4.50482 -3.5093,6.18331 -7.0396,12.34823 -10.5778,18.51307 -3.575,-6.17798 -7.1683,-12.34815 -10.7354,-18.53146 3.3569,1.50251 6.685,3.06275 10.0367,4.57314 0,0 0,0 1.5209,-0.0499 z"/><path style="stroke-width:.262672" id="path371636-7-22" d="m 1489.4088,515.3385 c 3.2597,-1.48411 6.4827,-3.04435 9.7556,-4.50482 -3.5093,6.18331 -7.0396,12.34823 -10.5778,18.51307 -3.575,-6.17798 -7.1683,-12.34815 -10.7354,-18.53146 3.3569,1.50251 6.685,3.06275 10.0367,4.57314 0,0 0,0 1.5209,-0.0499 z"/><path style="stroke-width:.262672" id="path371636-7-6" d="m 400.8254,264.26491 c 3.2597,-1.48411 6.4827,-3.04435 9.7556,-4.50482 -3.5093,6.18331 -7.0396,12.34823 -10.5778,18.51307 -3.575,-6.17798 -7.1683,-12.34815 -10.7354,-18.53146 3.3569,1.50251 6.685,3.06275 10.0367,4.57314 0,0 0,0 1.5209,-0.0499 z"/><path style="stroke-width:.262672" id="path371636-7-1" d="m 402.6188,346.76052 c 3.2597,-1.48411 6.4827,-3.04435 9.7556,-4.50482 -3.5093,6.18331 -7.0396,12.34823 -10.5778,18.51307 -3.575,-6.17798 -7.1683,-12.34815 -10.7354,-18.53146 3.3569,1.50251 6.685,3.06275 10.0367,4.57314 0,0 0,0 1.5209,-0.0499 z"/><path style="stroke-width:.262672" id="path371636-7-0" d="m 404.2055,500.78482 c 3.2597,-1.48411 6.4827,-3.04435 9.7556,-4.50482 -3.5093,6.18331 -7.0396,12.34823 -10.5778,18.51307 -3.575,-6.17798 -7.1683,-12.34815 -10.7354,-18.53146 3.3569,1.50251 6.685,3.06275 10.0367,4.57314 0,0 0,0 1.5209,-0.0499 z"/><path style="stroke-width:.262672" id="path371636-7-61" d="m 402.6188,581.69367 c 3.2597,-1.48411 6.4827,-3.04435 9.7556,-4.50482 -3.5093,6.18331 -7.0396,12.34823 -10.5778,18.51307 -3.575,-6.17798 -7.1683,-12.34815 -10.7354,-18.53146 3.3569,1.50251 6.685,3.06275 10.0367,4.57314 0,0 0,0 1.5209,-0.0499 z"/><path style="stroke-width:.262672" id="path371636-7-5" d="m 402.6188,658.80913 c 3.2597,-1.48411 6.4827,-3.04435 9.7556,-4.50482 -3.5093,6.18331 -7.0396,12.34823 -10.5778,18.51307 -3.575,-6.17798 -7.1683,-12.34815 -10.7354,-18.53146 3.3569,1.50251 6.685,3.06275 10.0367,4.57314 0,0 0,0 1.5209,-0.0499 z"/><path style="stroke-width:.262672" id="path371636-7-9" d="m 402.6188,732.33782 c 3.2597,-1.48411 6.4827,-3.04435 9.7556,-4.50482 -3.5093,6.18331 -7.0396,12.34823 -10.5778,18.51307 -3.575,-6.17798 -7.1683,-12.34815 -10.7354,-18.53146 3.3569,1.50251 6.685,3.06275 10.0367,4.57314 0,0 0,0 1.5209,-0.0499 z"/><path style="stroke-width:.262672" id="path371636-7-4" d="m 402.4121,800.48637 c 3.2597,-1.48411 6.4827,-3.04435 9.7556,-4.50482 -3.5093,6.18331 -7.0396,12.34823 -10.5778,18.51307 -3.575,-6.17798 -7.1683,-12.34815 -10.7354,-18.53146 3.3569,1.50251 6.685,3.06275 10.0367,4.57314 0,0 0,0 1.5209,-0.0499 z"/><path style="stroke-width:.262672" id="path371636-7-90" d="m 402.2055,875.80845 c 3.2597,-1.48411 6.4827,-3.04435 9.7556,-4.50482 -3.5093,6.18331 -7.0396,12.34823 -10.5778,18.51307 -3.575,-6.17798 -7.1683,-12.34815 -10.7354,-18.53146 3.3569,1.50251 6.685,3.06275 10.0367,4.57314 0,0 0,0 1.5209,-0.0499 z"/><path style="stroke-width:.262672" id="path371636-7-91" d="m 400.4121,942.16362 c 3.2597,-1.48411 6.4827,-3.04435 9.7556,-4.50482 -3.5093,6.18331 -7.0396,12.34823 -10.5778,18.51307 -3.575,-6.17798 -7.1683,-12.34815 -10.7354,-18.53146 3.3569,1.50251 6.685,3.06275 10.0367,4.57314 0,0 0,0 1.5209,-0.0499 z"/><path style="stroke-width:.262672" id="path371636-7-77" d="m 407.9989,1311.6005 c 3.2597,-1.4841 6.4827,-3.0444 9.7556,-4.5048 -3.5093,6.1833 -7.0396,12.3482 -10.5778,18.513 -3.575,-6.1779 -7.1683,-12.3481 -10.7354,-18.5314 3.3569,1.5025 6.685,3.0627 10.0367,4.5731 0,0 0,0 1.5209,-0.05 z"/><path style="stroke-width:.262672" id="path371636-7-11" d="m 407.9989,1381.5424 c 3.2597,-1.4841 6.4827,-3.0443 9.7556,-4.5048 -3.5093,6.1833 -7.0396,12.3482 -10.5778,18.5131 -3.575,-6.178 -7.1683,-12.3482 -10.7354,-18.5315 3.3569,1.5025 6.685,3.0627 10.0367,4.5731 0,0 0,0 1.5209,-0.05 z"/><path style="stroke-width:.262672" id="path371636-7-59" d="m 407.9989,1458.6579 c 3.2597,-1.4841 6.4827,-3.0444 9.7556,-4.5049 -3.5093,6.1834 -7.0396,12.3483 -10.5778,18.5131 -3.575,-6.178 -7.1683,-12.3481 -10.7354,-18.5314 3.3569,1.5025 6.685,3.0627 10.0367,4.5731 0,0 0,0 1.5209,-0.05 z"/></g></svg>