<svg xmlns="http://www.w3.org/2000/svg" xmlns:xlink="http://www.w3.org/1999/xlink" style="width:900px;height:1087px;background:#fff" width="900" height="1087" contentStyleType="text/css" preserveAspectRatio="none" version="1.1" viewBox="0 0 900 1087" zoomAndPan="magnify"><g><rect style="stroke:#181818;stroke-width:.5" width="261.5" height="1075.172" x="44" y="6" fill="#DDD"/><text x="164.75" y="18.067" fill="#000" font-family="sans-serif" font-size="13" font-weight="bold" lengthAdjust="spacing" textLength="20">AP</text><rect style="stroke:#181818;stroke-width:.5" width="502" height="1075.172" x="364" y="6" fill="#DDD"/><text x="601" y="18.067" fill="#000" font-family="sans-serif" font-size="13" font-weight="bold" lengthAdjust="spacing" textLength="28">RSE</text><line style="stroke:#181818;stroke-width:.5;stroke-dasharray:5,5" x1="82" x2="82" y1="56.43" y2="1046.875"/><line style="stroke:#181818;stroke-width:.5;stroke-dasharray:5,5" x1="266.5" x2="266.5" y1="56.43" y2="1046.875"/><line style="stroke:#181818;stroke-width:.5;stroke-dasharray:5,5" x1="426" x2="426" y1="56.43" y2="1046.875"/><line style="stroke:#181818;stroke-width:.5;stroke-dasharray:5,5" x1="553.5" x2="553.5" y1="56.43" y2="1046.875"/><line style="stroke:#181818;stroke-width:.5;stroke-dasharray:5,5" x1="705" x2="705" y1="56.43" y2="1046.875"/><line style="stroke:#181818;stroke-width:.5;stroke-dasharray:5,5" x1="822" x2="822" y1="56.43" y2="1046.875"/><rect style="stroke:#181818;stroke-width:.5" width="48" height="30.297" x="58" y="25.133" fill="#E2E2F0" rx="2.5" ry="2.5"/><text x="65" y="45.128" fill="#000" font-family="sans-serif" font-size="14" lengthAdjust="spacing" textLength="34">RMM</text><rect style="stroke:#181818;stroke-width:.5" width="48" height="30.297" x="58" y="1045.875" fill="#E2E2F0" rx="2.5" ry="2.5"/><text x="65" y="1065.87" fill="#000" font-family="sans-serif" font-size="14" lengthAdjust="spacing" textLength="34">RMM</text><rect style="stroke:#181818;stroke-width:.5" width="49" height="30.297" x="242.5" y="25.133" fill="#E2E2F0" rx="2.5" ry="2.5"/><text x="249.5" y="45.128" fill="#000" font-family="sans-serif" font-size="14" lengthAdjust="spacing" textLength="35">BL31</text><rect style="stroke:#181818;stroke-width:.5" width="49" height="30.297" x="242.5" y="1045.875" fill="#E2E2F0" rx="2.5" ry="2.5"/><text x="249.5" y="1065.87" fill="#000" font-family="sans-serif" font-size="14" lengthAdjust="spacing" textLength="35">BL31</text><rect style="stroke:#181818;stroke-width:.5" width="96" height="30.297" x="378" y="25.133" fill="#E2E2F0" rx="2.5" ry="2.5"/><text x="385" y="45.128" fill="#000" font-family="sans-serif" font-size="14" lengthAdjust="spacing" textLength="82">DelegAttest</text><rect style="stroke:#181818;stroke-width:.5" width="96" height="30.297" x="378" y="1045.875" fill="#E2E2F0" rx="2.5" ry="2.5"/><text x="385" y="1065.87" fill="#000" font-family="sans-serif" font-size="14" lengthAdjust="spacing" textLength="82">DelegAttest</text><rect style="stroke:#181818;stroke-width:.5" width="75" height="30.297" x="516.5" y="25.133" fill="#E2E2F0" rx="2.5" ry="2.5"/><text x="523.5" y="45.128" fill="#000" font-family="sans-serif" font-size="14" lengthAdjust="spacing" textLength="61">InitAttest</text><rect style="stroke:#181818;stroke-width:.5" width="75" height="30.297" x="516.5" y="1045.875" fill="#E2E2F0" rx="2.5" ry="2.5"/><text x="523.5" y="1065.87" fill="#000" font-family="sans-serif" font-size="14" lengthAdjust="spacing" textLength="61">InitAttest</text><rect style="stroke:#181818;stroke-width:.5" width="116" height="30.297" x="647" y="25.133" fill="#E2E2F0" rx="2.5" ry="2.5"/><text x="654" y="45.128" fill="#000" font-family="sans-serif" font-size="14" lengthAdjust="spacing" textLength="102">MeasuredBoot</text><rect style="stroke:#181818;stroke-width:.5" width="116" height="30.297" x="647" y="1045.875" fill="#E2E2F0" rx="2.5" ry="2.5"/><text x="654" y="1065.87" fill="#000" font-family="sans-serif" font-size="14" lengthAdjust="spacing" textLength="102">MeasuredBoot</text><rect style="stroke:#181818;stroke-width:.5" width="59" height="30.297" x="793" y="25.133" fill="#E2E2F0" rx="2.5" ry="2.5"/><text x="800" y="45.128" fill="#000" font-family="sans-serif" font-size="14" lengthAdjust="spacing" textLength="45">Crypto</text><rect style="stroke:#181818;stroke-width:.5" width="59" height="30.297" x="793" y="1045.875" fill="#E2E2F0" rx="2.5" ry="2.5"/><text x="800" y="1065.87" fill="#000" font-family="sans-serif" font-size="14" lengthAdjust="spacing" textLength="45">Crypto</text><rect style="stroke:#eee;stroke-width:1" width="893" height="3" x="0" y="86.996" fill="#EEE"/><line style="stroke:#000;stroke-width:1" x1="0" x2="893" y1="86.996" y2="86.996"/><line style="stroke:#000;stroke-width:1" x1="0" x2="893" y1="89.996" y2="89.996"/><rect style="stroke:#000;stroke-width:2" width="144" height="23.133" x="374.5" y="76.43" fill="#EEE"/><text x="380.5" y="92.497" fill="#000" font-family="sans-serif" font-size="13" font-weight="bold" lengthAdjust="spacing" textLength="125">RMM Boot phase</text><polygon fill="#181818" points="255 141.828 265 145.828 255 149.828 259 145.828" style="stroke:#181818;stroke-width:1"/><line style="stroke:#181818;stroke-width:1" x1="82" x2="261" y1="145.828" y2="145.828"/><text x="89" y="125.629" fill="#000" font-family="sans-serif" font-size="13" lengthAdjust="spacing" textLength="99">get_realm_key(</text><text x="121" y="140.762" fill="#000" font-family="sans-serif" font-size="13" font-weight="bold" lengthAdjust="spacing" textLength="74">hash_algo</text><text x="195" y="140.762" fill="#000" font-family="sans-serif" font-size="13" lengthAdjust="spacing" textLength="25">, ...)</text><polygon fill="#181818" points="414 170.961 424 174.961 414 178.961 418 174.961" style="stroke:#181818;stroke-width:1"/><line style="stroke:#181818;stroke-width:1" x1="267" x2="420" y1="174.961" y2="174.961"/><text x="274" y="169.895" fill="#000" font-family="sans-serif" font-size="13" lengthAdjust="spacing" textLength="121">get_delegated_key</text><polygon fill="#181818" points="693 200.094 703 204.094 693 208.094 697 204.094" style="stroke:#181818;stroke-width:1"/><line style="stroke:#181818;stroke-width:1" x1="426" x2="699" y1="204.094" y2="204.094"/><text x="433" y="199.028" fill="#000" font-family="sans-serif" font-size="13" lengthAdjust="spacing" textLength="127">read_measurement</text><rect style="stroke:#181818;stroke-width:.5" width="167" height="53" x="342" y="217.094" fill="#FEFFDD"/><text x="346" y="233.161" fill="#000" font-family="sans-serif" font-size="13" lengthAdjust="spacing" textLength="95">Compute input</text><text x="346" y="248.293" fill="#000" font-family="sans-serif" font-size="13" lengthAdjust="spacing" textLength="110">for key derivation</text><text x="346" y="263.426" fill="#000" font-family="sans-serif" font-size="13" lengthAdjust="spacing" textLength="159">(hash of measurements)</text><polygon fill="#181818" points="810.5 292.625 820.5 296.625 810.5 300.625 814.5 296.625" style="stroke:#181818;stroke-width:1"/><line style="stroke:#181818;stroke-width:1" x1="426" x2="816.5" y1="296.625" y2="296.625"/><text x="433" y="291.559" fill="#000" font-family="sans-serif" font-size="13" lengthAdjust="spacing" textLength="68">derive_key</text><rect style="stroke:#181818;stroke-width:.5" width="150" height="38" x="351" y="309.625" fill="#FEFFDD"/><text x="355" y="325.692" fill="#000" font-family="sans-serif" font-size="13" lengthAdjust="spacing" textLength="126">Compute public key</text><text x="355" y="340.825" fill="#000" font-family="sans-serif" font-size="13" lengthAdjust="spacing" textLength="60">hash with</text><text x="419" y="340.825" fill="#000" font-family="sans-serif" font-size="13" font-weight="bold" lengthAdjust="spacing" textLength="74">hash_algo</text><text x="493" y="340.825" fill="#000" font-family="sans-serif" font-size="13" lengthAdjust="spacing" textLength="4">.</text><rect style="stroke:#181818;stroke-width:.5" width="132" height="38" x="756" y="357.891" fill="#FEFFDD"/><text x="760" y="373.957" fill="#000" font-family="sans-serif" font-size="13" lengthAdjust="spacing" textLength="124">Seed is provisioned</text><text x="760" y="389.09" fill="#000" font-family="sans-serif" font-size="13" lengthAdjust="spacing" textLength="88">in the factory.</text><polygon fill="#181818" points="278 418.289 268 422.289 278 426.289 274 422.289" style="stroke:#181818;stroke-width:1"/><line style="stroke:#181818;stroke-width:1;stroke-dasharray:2,2" x1="272" x2="425" y1="422.289" y2="422.289"/><text x="284" y="417.223" fill="#000" font-family="sans-serif" font-size="13" lengthAdjust="spacing" textLength="121">get_delegated_key</text><polygon fill="#181818" points="93 447.422 83 451.422 93 455.422 89 451.422" style="stroke:#181818;stroke-width:1"/><line style="stroke:#181818;stroke-width:1;stroke-dasharray:2,2" x1="87" x2="266" y1="451.422" y2="451.422"/><text x="99" y="446.356" fill="#000" font-family="sans-serif" font-size="13" lengthAdjust="spacing" textLength="94">get_realm_key</text><rect style="stroke:#181818;stroke-width:.5" width="154" height="129" x="5" y="464.422" fill="#FEFFDD"/><text x="9" y="480.489" fill="#000" font-family="sans-serif" font-size="13" lengthAdjust="spacing" textLength="102">Only private key</text><text x="9" y="495.622" fill="#000" font-family="sans-serif" font-size="13" lengthAdjust="spacing" textLength="114">is returned. Public</text><text x="9" y="510.754" fill="#000" font-family="sans-serif" font-size="13" lengthAdjust="spacing" textLength="104">key and its hash</text><text x="9" y="525.887" fill="#000" font-family="sans-serif" font-size="13" lengthAdjust="spacing" textLength="126">must be computed.</text><text x="9" y="541.02" fill="#000" font-family="sans-serif" font-size="13" lengthAdjust="spacing" textLength="134">Public key is included</text><text x="9" y="556.153" fill="#000" font-family="sans-serif" font-size="13" lengthAdjust="spacing" textLength="121">in the realm token.</text><text x="9" y="571.286" fill="#000" font-family="sans-serif" font-size="13" lengthAdjust="spacing" textLength="125">Its hash is the input</text><text x="9" y="586.418" fill="#000" font-family="sans-serif" font-size="13" lengthAdjust="spacing" textLength="146">for get_platform_token</text><polygon fill="#181818" points="255 630.75 265 634.75 255 638.75 259 634.75" style="stroke:#181818;stroke-width:1"/><line style="stroke:#181818;stroke-width:1" x1="82" x2="261" y1="634.75" y2="634.75"/><text x="89" y="614.551" fill="#000" font-family="sans-serif" font-size="13" lengthAdjust="spacing" textLength="130">get_platform_token(</text><text x="121" y="629.684" fill="#000" font-family="sans-serif" font-size="13" font-weight="bold" lengthAdjust="spacing" textLength="104">pub_key_hash</text><text x="225" y="629.684" fill="#000" font-family="sans-serif" font-size="13" lengthAdjust="spacing" textLength="25">, ...)</text><polygon fill="#181818" points="414 659.883 424 663.883 414 667.883 418 663.883" style="stroke:#181818;stroke-width:1"/><line style="stroke:#181818;stroke-width:1" x1="267" x2="420" y1="663.883" y2="663.883"/><text x="274" y="658.817" fill="#000" font-family="sans-serif" font-size="13" lengthAdjust="spacing" textLength="135">get_delegated_token</text><rect style="stroke:#181818;stroke-width:.5" width="155" height="38" x="348" y="676.883" fill="#FEFFDD"/><text x="352" y="692.95" fill="#000" font-family="sans-serif" font-size="13" lengthAdjust="spacing" textLength="39">Check</text><text x="395" y="692.95" fill="#000" font-family="sans-serif" font-size="13" font-weight="bold" lengthAdjust="spacing" textLength="104">pub_key_hash</text><text x="352" y="708.082" fill="#000" font-family="sans-serif" font-size="13" lengthAdjust="spacing" textLength="128">against derived key.</text><polygon fill="#181818" points="542 737.281 552 741.281 542 745.281 546 741.281" style="stroke:#181818;stroke-width:1"/><line style="stroke:#181818;stroke-width:1" x1="426" x2="548" y1="741.281" y2="741.281"/><text x="433" y="736.215" fill="#000" font-family="sans-serif" font-size="13" lengthAdjust="spacing" textLength="104">get_initial_token</text><rect style="stroke:#181818;stroke-width:.5" width="181" height="53" x="463" y="754.281" fill="#FEFFDD"/><text x="467" y="770.348" fill="#000" font-family="sans-serif" font-size="13" lengthAdjust="spacing" textLength="168">Create the token including</text><text x="467" y="785.481" fill="#000" font-family="sans-serif" font-size="13" lengthAdjust="spacing" textLength="21">the</text><text x="492" y="785.481" fill="#000" font-family="sans-serif" font-size="13" font-weight="bold" lengthAdjust="spacing" textLength="104">pub_key_hash</text><text x="600" y="785.481" fill="#000" font-family="sans-serif" font-size="13" lengthAdjust="spacing" textLength="40">as the</text><text x="467" y="800.614" fill="#000" font-family="sans-serif" font-size="13" lengthAdjust="spacing" textLength="99">challenge claim</text><polygon fill="#181818" points="693 829.813 703 833.813 693 837.813 697 833.813" style="stroke:#181818;stroke-width:1"/><line style="stroke:#181818;stroke-width:1" x1="554" x2="699" y1="833.813" y2="833.813"/><text x="561" y="828.747" fill="#000" font-family="sans-serif" font-size="13" lengthAdjust="spacing" textLength="127">read_measurement</text><polygon fill="#181818" points="810.5 858.945 820.5 862.945 810.5 866.945 814.5 862.945" style="stroke:#181818;stroke-width:1"/><line style="stroke:#181818;stroke-width:1" x1="554" x2="816.5" y1="862.945" y2="862.945"/><text x="561" y="857.879" fill="#000" font-family="sans-serif" font-size="13" lengthAdjust="spacing" textLength="69">sign_token</text><polygon fill="#181818" points="437 888.078 427 892.078 437 896.078 433 892.078" style="stroke:#181818;stroke-width:1"/><line style="stroke:#181818;stroke-width:1;stroke-dasharray:2,2" x1="431" x2="553" y1="892.078" y2="892.078"/><text x="443" y="887.012" fill="#000" font-family="sans-serif" font-size="13" lengthAdjust="spacing" textLength="104">get_initial_token</text><polygon fill="#181818" points="278 917.211 268 921.211 278 925.211 274 921.211" style="stroke:#181818;stroke-width:1"/><line style="stroke:#181818;stroke-width:1;stroke-dasharray:2,2" x1="272" x2="425" y1="921.211" y2="921.211"/><text x="284" y="916.145" fill="#000" font-family="sans-serif" font-size="13" lengthAdjust="spacing" textLength="135">get_delegated_token</text><polygon fill="#181818" points="93 946.344 83 950.344 93 954.344 89 950.344" style="stroke:#181818;stroke-width:1"/><line style="stroke:#181818;stroke-width:1;stroke-dasharray:2,2" x1="87" x2="266" y1="950.344" y2="950.344"/><text x="99" y="945.278" fill="#000" font-family="sans-serif" font-size="13" lengthAdjust="spacing" textLength="125">get_platform_token</text><rect style="stroke:#181818;stroke-width:.5" width="116" height="68" x="24" y="963.344" fill="#FEFFDD"/><text x="28" y="979.411" fill="#000" font-family="sans-serif" font-size="13" lengthAdjust="spacing" textLength="108">Platform token is</text><text x="28" y="994.543" fill="#000" font-family="sans-serif" font-size="13" lengthAdjust="spacing" textLength="101">cached. It is not</text><text x="28" y="1009.676" fill="#000" font-family="sans-serif" font-size="13" lengthAdjust="spacing" textLength="98">changing within</text><text x="28" y="1024.809" fill="#000" font-family="sans-serif" font-size="13" lengthAdjust="spacing" textLength="90">a power cycle.</text></g></svg>