<svg xmlns="http://www.w3.org/2000/svg" xmlns:xlink="http://www.w3.org/1999/xlink" style="width:1254px;height:1826px;background:#fff" width="1254" height="1826" contentStyleType="text/css" preserveAspectRatio="none" version="1.1" viewBox="0 0 1254 1826" zoomAndPan="magnify"><g><rect style="stroke:#181818;stroke-width:.5" width="610.5" height="1814.094" x="27" y="6" fill="#DDD"/><text x="318.25" y="18.067" fill="#000" font-family="sans-serif" font-size="13" font-weight="bold" lengthAdjust="spacing" textLength="28">RSE</text><rect style="stroke:#181818;stroke-width:.5" width="103" height="1814.094" x="659.5" y="6" fill="#DDD"/><text x="696.5" y="18.067" fill="#000" font-family="sans-serif" font-size="13" font-weight="bold" lengthAdjust="spacing" textLength="29">SCP</text><rect style="stroke:#181818;stroke-width:.5" width="451.5" height="1814.094" x="784.5" y="6" fill="#DDD"/><text x="1000.25" y="18.067" fill="#000" font-family="sans-serif" font-size="13" font-weight="bold" lengthAdjust="spacing" textLength="20">AP</text><rect style="stroke:#181818;stroke-width:1" width="10" height="205.93" x="81.5" y="130.695" fill="green"/><rect style="stroke:#181818;stroke-width:1" width="10" height="106.531" x="227.5" y="336.625" fill="green"/><rect style="stroke:#181818;stroke-width:1" width="10" height="414.992" x="408.5" y="443.156" fill="green"/><rect style="stroke:#181818;stroke-width:1" width="10" height="918.648" x="589.5" y="858.148" fill="green"/><rect style="stroke:#181818;stroke-width:1" width="10" height="1182.844" x="706" y="593.953" fill="green"/><rect style="stroke:#181818;stroke-width:1" width="10" height="460.391" x="826" y="829.016" fill="green"/><rect style="stroke:#181818;stroke-width:1" width="10" height="435.258" x="1003" y="1289.406" fill="green"/><rect style="stroke:#181818;stroke-width:1" width="10" height="52.133" x="1180" y="1724.664" fill="green"/><line style="stroke:#181818;stroke-width:.5;stroke-dasharray:5,5" x1="86" x2="86" y1="56.43" y2="1785.797"/><line style="stroke:#181818;stroke-width:.5;stroke-dasharray:5,5" x1="232" x2="232" y1="56.43" y2="1785.797"/><line style="stroke:#181818;stroke-width:.5;stroke-dasharray:5,5" x1="413" x2="413" y1="56.43" y2="1785.797"/><line style="stroke:#181818;stroke-width:.5;stroke-dasharray:5,5" x1="594.5" x2="594.5" y1="56.43" y2="1785.797"/><line style="stroke:#181818;stroke-width:.5;stroke-dasharray:5,5" x1="710.5" x2="710.5" y1="56.43" y2="1785.797"/><line style="stroke:#181818;stroke-width:.5;stroke-dasharray:5,5" x1="830.5" x2="830.5" y1="56.43" y2="1785.797"/><line style="stroke:#181818;stroke-width:.5;stroke-dasharray:5,5" x1="1007.5" x2="1007.5" y1="56.43" y2="1785.797"/><line style="stroke:#181818;stroke-width:.5;stroke-dasharray:5,5" x1="1185" x2="1185" y1="56.43" y2="1785.797"/><rect style="stroke:#181818;stroke-width:.5" width="91" height="30.297" x="41" y="25.133" fill="#E2E2F0" rx="2.5" ry="2.5"/><text x="48" y="45.128" fill="#000" font-family="sans-serif" font-size="14" lengthAdjust="spacing" textLength="77">RSE_BL1_1</text><rect style="stroke:#181818;stroke-width:.5" width="91" height="30.297" x="41" y="1784.797" fill="#E2E2F0" rx="2.5" ry="2.5"/><text x="48" y="1804.792" fill="#000" font-family="sans-serif" font-size="14" lengthAdjust="spacing" textLength="77">RSE_BL1_1</text><rect style="stroke:#181818;stroke-width:.5" width="91" height="30.297" x="187" y="25.133" fill="#E2E2F0" rx="2.5" ry="2.5"/><text x="194" y="45.128" fill="#000" font-family="sans-serif" font-size="14" lengthAdjust="spacing" textLength="77">RSE_BL1_2</text><rect style="stroke:#181818;stroke-width:.5" width="91" height="30.297" x="187" y="1784.797" fill="#E2E2F0" rx="2.5" ry="2.5"/><text x="194" y="1804.792" fill="#000" font-family="sans-serif" font-size="14" lengthAdjust="spacing" textLength="77">RSE_BL1_2</text><rect style="stroke:#181818;stroke-width:.5" width="75" height="30.297" x="376" y="25.133" fill="#E2E2F0" rx="2.5" ry="2.5"/><text x="383" y="45.128" fill="#000" font-family="sans-serif" font-size="14" lengthAdjust="spacing" textLength="61">RSE_BL2</text><rect style="stroke:#181818;stroke-width:.5" width="75" height="30.297" x="376" y="1784.797" fill="#E2E2F0" rx="2.5" ry="2.5"/><text x="383" y="1804.792" fill="#000" font-family="sans-serif" font-size="14" lengthAdjust="spacing" textLength="61">RSE_BL2</text><rect style="stroke:#181818;stroke-width:.5" width="58" height="30.297" x="565.5" y="25.133" fill="#E2E2F0" rx="2.5" ry="2.5"/><text x="572.5" y="45.128" fill="#000" font-family="sans-serif" font-size="14" lengthAdjust="spacing" textLength="44">RSE_S</text><rect style="stroke:#181818;stroke-width:.5" width="58" height="30.297" x="565.5" y="1784.797" fill="#E2E2F0" rx="2.5" ry="2.5"/><text x="572.5" y="1804.792" fill="#000" font-family="sans-serif" font-size="14" lengthAdjust="spacing" textLength="44">RSE_S</text><rect style="stroke:#181818;stroke-width:.5" width="75" height="30.297" x="673.5" y="25.133" fill="#E2E2F0" rx="2.5" ry="2.5"/><text x="680.5" y="45.128" fill="#000" font-family="sans-serif" font-size="14" lengthAdjust="spacing" textLength="61">SCP_BL1</text><rect style="stroke:#181818;stroke-width:.5" width="75" height="30.297" x="673.5" y="1784.797" fill="#E2E2F0" rx="2.5" ry="2.5"/><text x="680.5" y="1804.792" fill="#000" font-family="sans-serif" font-size="14" lengthAdjust="spacing" textLength="61">SCP_BL1</text><rect style="stroke:#181818;stroke-width:.5" width="65" height="30.297" x="798.5" y="25.133" fill="#E2E2F0" rx="2.5" ry="2.5"/><text x="805.5" y="45.128" fill="#000" font-family="sans-serif" font-size="14" lengthAdjust="spacing" textLength="51">AP_BL1</text><rect style="stroke:#181818;stroke-width:.5" width="65" height="30.297" x="798.5" y="1784.797" fill="#E2E2F0" rx="2.5" ry="2.5"/><text x="805.5" y="1804.792" fill="#000" font-family="sans-serif" font-size="14" lengthAdjust="spacing" textLength="51">AP_BL1</text><rect style="stroke:#181818;stroke-width:.5" width="65" height="30.297" x="975.5" y="25.133" fill="#E2E2F0" rx="2.5" ry="2.5"/><text x="982.5" y="45.128" fill="#000" font-family="sans-serif" font-size="14" lengthAdjust="spacing" textLength="51">AP_BL2</text><rect style="stroke:#181818;stroke-width:.5" width="65" height="30.297" x="975.5" y="1784.797" fill="#E2E2F0" rx="2.5" ry="2.5"/><text x="982.5" y="1804.792" fill="#000" font-family="sans-serif" font-size="14" lengthAdjust="spacing" textLength="51">AP_BL2</text><rect style="stroke:#181818;stroke-width:.5" width="74" height="30.297" x="1148" y="25.133" fill="#E2E2F0" rx="2.5" ry="2.5"/><text x="1155" y="45.128" fill="#000" font-family="sans-serif" font-size="14" lengthAdjust="spacing" textLength="60">AP_BL31</text><rect style="stroke:#181818;stroke-width:.5" width="74" height="30.297" x="1148" y="1784.797" fill="#E2E2F0" rx="2.5" ry="2.5"/><text x="1155" y="1804.792" fill="#000" font-family="sans-serif" font-size="14" lengthAdjust="spacing" textLength="60">AP_BL31</text><rect style="stroke:#181818;stroke-width:1" width="10" height="205.93" x="81.5" y="130.695" fill="green"/><rect style="stroke:#181818;stroke-width:1" width="10" height="106.531" x="227.5" y="336.625" fill="green"/><rect style="stroke:#181818;stroke-width:1" width="10" height="414.992" x="408.5" y="443.156" fill="green"/><rect style="stroke:#181818;stroke-width:1" width="10" height="918.648" x="589.5" y="858.148" fill="green"/><rect style="stroke:#181818;stroke-width:1" width="10" height="1182.844" x="706" y="593.953" fill="green"/><rect style="stroke:#181818;stroke-width:1" width="10" height="460.391" x="826" y="829.016" fill="green"/><rect style="stroke:#181818;stroke-width:1" width="10" height="435.258" x="1003" y="1289.406" fill="green"/><rect style="stroke:#181818;stroke-width:1" width="10" height="52.133" x="1180" y="1724.664" fill="green"/><rect style="stroke:#eee;stroke-width:1" width="1247" height="3" x="0" y="86.996" fill="#EEE"/><line style="stroke:#000;stroke-width:1" x1="0" x2="1247" y1="86.996" y2="86.996"/><line style="stroke:#000;stroke-width:1" x1="0" x2="1247" y1="89.996" y2="89.996"/><rect style="stroke:#000;stroke-width:2" width="136" height="23.133" x="555.5" y="76.43" fill="#EEE"/><text x="561.5" y="92.497" fill="#000" font-family="sans-serif" font-size="13" font-weight="bold" lengthAdjust="spacing" textLength="117">RSE Boot phase</text><polygon fill="#181818" points="69.5 126.695 79.5 130.695 69.5 134.695 73.5 130.695" style="stroke:#181818;stroke-width:1"/><line style="stroke:#181818;stroke-width:1" x1="0" x2="75.5" y1="130.695" y2="130.695"/><text x="7" y="125.629" fill="#000" font-family="sans-serif" font-size="13" lengthAdjust="spacing" textLength="36">Reset</text><rect style="stroke:#181818;stroke-width:.5" width="99" height="23" x="37" y="143.695" fill="#FEFFDD"/><text x="41" y="159.762" fill="#000" font-family="sans-serif" font-size="13" lengthAdjust="spacing" textLength="91">ROM code, XIP</text><rect style="stroke:#181818;stroke-width:.5" width="95" height="23" x="185" y="176.828" fill="#FEFFDD"/><text x="189" y="192.895" fill="#000" font-family="sans-serif" font-size="13" lengthAdjust="spacing" textLength="87">OTP code, XIP</text><rect style="stroke:#181818;stroke-width:.5" width="861" height="23" x="368" y="209.961" fill="#FEFFDD"/><text x="658" y="226.028" fill="#000" font-family="sans-serif" font-size="13" lengthAdjust="spacing" textLength="281">Stored in flash, loaded and executed in RAM</text><line style="stroke:#181818;stroke-width:1" x1="230.5" x2="220.5" y1="259.227" y2="255.227"/><line style="stroke:#181818;stroke-width:1" x1="230.5" x2="220.5" y1="259.227" y2="263.227"/><line style="stroke:#181818;stroke-width:1;stroke-dasharray:2,2" x1="91.5" x2="231.5" y1="259.227" y2="259.227"/><text x="98.5" y="254.161" fill="#000" font-family="sans-serif" font-size="13" lengthAdjust="spacing" textLength="117">Validate, measure</text><rect style="stroke:#181818;stroke-width:.5" width="164" height="38" x="5" y="272.227" fill="#FEFFDD"/><text x="9" y="288.293" fill="#000" font-family="sans-serif" font-size="13" lengthAdjust="spacing" textLength="134">BL1_2 measurement</text><text x="9" y="303.426" fill="#000" font-family="sans-serif" font-size="13" lengthAdjust="spacing" textLength="156">saved to a shared buffer</text><polygon fill="#181818" points="215.5 332.625 225.5 336.625 215.5 340.625 219.5 336.625" style="stroke:#181818;stroke-width:1"/><line style="stroke:#181818;stroke-width:1" x1="86.5" x2="221.5" y1="336.625" y2="336.625"/><text x="93.5" y="331.559" fill="#000" font-family="sans-serif" font-size="13" lengthAdjust="spacing" textLength="96">Pass execution</text><line style="stroke:#181818;stroke-width:1" x1="411.5" x2="401.5" y1="365.758" y2="361.758"/><line style="stroke:#181818;stroke-width:1" x1="411.5" x2="401.5" y1="365.758" y2="369.758"/><line style="stroke:#181818;stroke-width:1;stroke-dasharray:2,2" x1="237.5" x2="412.5" y1="365.758" y2="365.758"/><text x="244.5" y="360.692" fill="#000" font-family="sans-serif" font-size="13" lengthAdjust="spacing" textLength="152">Validate, measure, load</text><rect style="stroke:#181818;stroke-width:.5" width="164" height="38" x="150" y="378.758" fill="#FEFFDD"/><text x="154" y="394.825" fill="#000" font-family="sans-serif" font-size="13" lengthAdjust="spacing" textLength="152">RSE_BL2 measurement</text><text x="154" y="409.957" fill="#000" font-family="sans-serif" font-size="13" lengthAdjust="spacing" textLength="156">saved to a shared buffer</text><polygon fill="#181818" points="396.5 439.156 406.5 443.156 396.5 447.156 400.5 443.156" style="stroke:#181818;stroke-width:1"/><line style="stroke:#181818;stroke-width:1" x1="232.5" x2="402.5" y1="443.156" y2="443.156"/><text x="239.5" y="438.09" fill="#000" font-family="sans-serif" font-size="13" lengthAdjust="spacing" textLength="96">Pass execution</text><line style="stroke:#181818;stroke-width:1" x1="592.5" x2="582.5" y1="472.289" y2="468.289"/><line style="stroke:#181818;stroke-width:1" x1="592.5" x2="582.5" y1="472.289" y2="476.289"/><line style="stroke:#181818;stroke-width:1;stroke-dasharray:2,2" x1="418.5" x2="593.5" y1="472.289" y2="472.289"/><text x="425.5" y="467.223" fill="#000" font-family="sans-serif" font-size="13" lengthAdjust="spacing" textLength="152">Validate, measure, load</text><line style="stroke:#181818;stroke-width:1" x1="709" x2="699" y1="501.422" y2="497.422"/><line style="stroke:#181818;stroke-width:1" x1="709" x2="699" y1="501.422" y2="505.422"/><line style="stroke:#181818;stroke-width:1;stroke-dasharray:2,2" x1="418.5" x2="710" y1="501.422" y2="501.422"/><text x="425.5" y="496.356" fill="#000" font-family="sans-serif" font-size="13" lengthAdjust="spacing" textLength="152">Validate, measure, load</text><rect style="stroke:#181818;stroke-width:.5" width="148" height="53" x="339" y="514.422" fill="#FEFFDD"/><text x="343" y="530.489" fill="#000" font-family="sans-serif" font-size="13" lengthAdjust="spacing" textLength="131">RSE_S and SCP_BL1</text><text x="343" y="545.622" fill="#000" font-family="sans-serif" font-size="13" lengthAdjust="spacing" textLength="140">measurements saved</text><text x="343" y="560.754" fill="#000" font-family="sans-serif" font-size="13" lengthAdjust="spacing" textLength="114">to a shared buffer</text><polygon fill="#181818" points="694 589.953 704 593.953 694 597.953 698 593.953" style="stroke:#181818;stroke-width:1"/><line style="stroke:#181818;stroke-width:1" x1="418.5" x2="700" y1="593.953" y2="593.953"/><text x="425.5" y="588.887" fill="#000" font-family="sans-serif" font-size="13" lengthAdjust="spacing" textLength="121">Release from reset</text><rect style="stroke:#181818;stroke-width:.5" width="387" height="23" x="368" y="606.953" fill="#FEFFDD"/><text x="461.75" y="623.02" fill="#000" font-family="sans-serif" font-size="13" lengthAdjust="spacing" textLength="200">MHU init between RSE and SCP</text><rect style="stroke:#181818;stroke-width:.5" width="127" height="23" x="647" y="640.086" fill="#FEFFDD"/><text x="651" y="656.153" fill="#000" font-family="sans-serif" font-size="13" lengthAdjust="spacing" textLength="119">Configure memory</text><rect style="stroke:#181818;stroke-width:.5" width="93" height="23" x="367" y="673.219" fill="#FEFFDD"/><text x="371" y="689.286" fill="#000" font-family="sans-serif" font-size="13" lengthAdjust="spacing" textLength="85">Waits for SCP</text><polygon fill="#181818" points="429.5 718.484 419.5 722.484 429.5 726.484 425.5 722.484" style="stroke:#181818;stroke-width:1"/><line style="stroke:#181818;stroke-width:1;stroke-dasharray:2,2" x1="423.5" x2="705" y1="722.484" y2="722.484"/><text x="435.5" y="717.418" fill="#000" font-family="sans-serif" font-size="13" lengthAdjust="spacing" textLength="34">Done</text><line style="stroke:#181818;stroke-width:1" x1="829" x2="819" y1="751.617" y2="747.617"/><line style="stroke:#181818;stroke-width:1" x1="829" x2="819" y1="751.617" y2="755.617"/><line style="stroke:#181818;stroke-width:1;stroke-dasharray:2,2" x1="418.5" x2="830" y1="751.617" y2="751.617"/><text x="425.5" y="746.551" fill="#000" font-family="sans-serif" font-size="13" lengthAdjust="spacing" textLength="152">Validate, measure, load</text><rect style="stroke:#181818;stroke-width:.5" width="164" height="38" x="331" y="764.617" fill="#FEFFDD"/><text x="335" y="780.684" fill="#000" font-family="sans-serif" font-size="13" lengthAdjust="spacing" textLength="143">AP_BL1 measurement</text><text x="335" y="795.817" fill="#000" font-family="sans-serif" font-size="13" lengthAdjust="spacing" textLength="156">saved to a shared buffer</text><polygon fill="#181818" points="814 825.016 824 829.016 814 833.016 818 829.016" style="stroke:#181818;stroke-width:1"/><line style="stroke:#181818;stroke-width:1" x1="418.5" x2="820" y1="829.016" y2="829.016"/><text x="425.5" y="823.95" fill="#000" font-family="sans-serif" font-size="13" lengthAdjust="spacing" textLength="121">Release from reset</text><polygon fill="#181818" points="577.5 854.148 587.5 858.148 577.5 862.148 581.5 858.148" style="stroke:#181818;stroke-width:1"/><line style="stroke:#181818;stroke-width:1" x1="413.5" x2="583.5" y1="858.148" y2="858.148"/><text x="420.5" y="853.082" fill="#000" font-family="sans-serif" font-size="13" lengthAdjust="spacing" textLength="96">Pass execution</text><rect style="stroke:#181818;stroke-width:.5" width="182" height="68" x="503" y="871.148" fill="#FEFFDD"/><text x="507" y="887.215" fill="#000" font-family="sans-serif" font-size="13" lengthAdjust="spacing" textLength="163">Measurements read from</text><text x="507" y="902.348" fill="#000" font-family="sans-serif" font-size="13" lengthAdjust="spacing" textLength="174">shared buffer and saved by</text><text x="507" y="917.481" fill="#000" font-family="sans-serif" font-size="13" lengthAdjust="spacing" textLength="163">Measured Boot service to</text><text x="507" y="932.614" fill="#000" font-family="sans-serif" font-size="13" lengthAdjust="spacing" textLength="129">measurement slots.</text><rect style="stroke:#eee;stroke-width:1" width="1247" height="3" x="0" y="965.246" fill="#EEE"/><line style="stroke:#000;stroke-width:1" x1="0" x2="1247" y1="965.246" y2="965.246"/><line style="stroke:#000;stroke-width:1" x1="0" x2="1247" y1="968.246" y2="968.246"/><rect style="stroke:#000;stroke-width:2" width="237" height="23.133" x="505" y="954.68" fill="#EEE"/><text x="511" y="970.747" fill="#000" font-family="sans-serif" font-size="13" font-weight="bold" lengthAdjust="spacing" textLength="218">RSE Runtime / AP Boot phase</text><rect style="stroke:#181818;stroke-width:.5" width="313" height="23" x="556" y="992.813" fill="#FEFFDD"/><text x="617" y="1008.879" fill="#000" font-family="sans-serif" font-size="13" lengthAdjust="spacing" textLength="191">MHU init between RSE and AP</text><rect style="stroke:#181818;stroke-width:.5" width="126" height="53" x="768" y="1025.945" fill="#FEFFDD"/><text x="772" y="1042.012" fill="#000" font-family="sans-serif" font-size="13" lengthAdjust="spacing" textLength="118">Measure and load:</text><text x="772" y="1057.145" fill="#000" font-family="sans-serif" font-size="13" lengthAdjust="spacing" textLength="74">FW_CONFIG</text><text x="772" y="1072.278" fill="#000" font-family="sans-serif" font-size="13" lengthAdjust="spacing" textLength="97">TB_FW_CONFIG</text><polygon fill="#181818" points="610.5 1101.477 600.5 1105.477 610.5 1109.477 606.5 1105.477" style="stroke:#181818;stroke-width:1"/><line style="stroke:#181818;stroke-width:1" x1="604.5" x2="825" y1="1105.477" y2="1105.477"/><text x="616.5" y="1100.411" fill="#000" font-family="sans-serif" font-size="13" lengthAdjust="spacing" textLength="139">Extend measurement</text><rect style="stroke:#181818;stroke-width:.5" width="136" height="38" x="526" y="1118.477" fill="#FEFFDD"/><text x="530" y="1134.543" fill="#000" font-family="sans-serif" font-size="13" lengthAdjust="spacing" textLength="101">Measured Boot:</text><text x="530" y="1149.676" fill="#000" font-family="sans-serif" font-size="13" lengthAdjust="spacing" textLength="128">store measurement</text><line style="stroke:#181818;stroke-width:1" x1="1006" x2="996" y1="1182.875" y2="1178.875"/><line style="stroke:#181818;stroke-width:1" x1="1006" x2="996" y1="1182.875" y2="1186.875"/><line style="stroke:#181818;stroke-width:1;stroke-dasharray:2,2" x1="836" x2="1007" y1="1182.875" y2="1182.875"/><text x="843" y="1177.809" fill="#000" font-family="sans-serif" font-size="13" lengthAdjust="spacing" textLength="148">Validate, measure,load</text><polygon fill="#181818" points="610.5 1208.008 600.5 1212.008 610.5 1216.008 606.5 1212.008" style="stroke:#181818;stroke-width:1"/><line style="stroke:#181818;stroke-width:1" x1="604.5" x2="825" y1="1212.008" y2="1212.008"/><text x="616.5" y="1206.942" fill="#000" font-family="sans-serif" font-size="13" lengthAdjust="spacing" textLength="139">Extend measurement</text><rect style="stroke:#181818;stroke-width:.5" width="136" height="38" x="526" y="1225.008" fill="#FEFFDD"/><text x="530" y="1241.075" fill="#000" font-family="sans-serif" font-size="13" lengthAdjust="spacing" textLength="101">Measured Boot:</text><text x="530" y="1256.207" fill="#000" font-family="sans-serif" font-size="13" lengthAdjust="spacing" textLength="128">store measurement</text><polygon fill="#181818" points="991 1285.406 1001 1289.406 991 1293.406 995 1289.406" style="stroke:#181818;stroke-width:1"/><line style="stroke:#181818;stroke-width:1" x1="831" x2="997" y1="1289.406" y2="1289.406"/><text x="838" y="1284.34" fill="#000" font-family="sans-serif" font-size="13" lengthAdjust="spacing" textLength="96">Pass execution</text><rect style="stroke:#181818;stroke-width:.5" width="126" height="38" x="945" y="1302.406" fill="#FEFFDD"/><text x="949" y="1318.473" fill="#000" font-family="sans-serif" font-size="13" lengthAdjust="spacing" textLength="118">Measure and load:</text><text x="949" y="1333.606" fill="#000" font-family="sans-serif" font-size="13" lengthAdjust="spacing" textLength="77">HW_CONFIG</text><polygon fill="#181818" points="610.5 1362.805 600.5 1366.805 610.5 1370.805 606.5 1366.805" style="stroke:#181818;stroke-width:1"/><line style="stroke:#181818;stroke-width:1" x1="604.5" x2="1002" y1="1366.805" y2="1366.805"/><text x="616.5" y="1361.739" fill="#000" font-family="sans-serif" font-size="13" lengthAdjust="spacing" textLength="139">Extend measurement</text><rect style="stroke:#181818;stroke-width:.5" width="136" height="38" x="526" y="1379.805" fill="#FEFFDD"/><text x="530" y="1395.872" fill="#000" font-family="sans-serif" font-size="13" lengthAdjust="spacing" textLength="101">Measured Boot:</text><text x="530" y="1411.004" fill="#000" font-family="sans-serif" font-size="13" lengthAdjust="spacing" textLength="128">store measurement</text><line style="stroke:#181818;stroke-width:1" x1="1183" x2="1173" y1="1444.203" y2="1440.203"/><line style="stroke:#181818;stroke-width:1" x1="1183" x2="1173" y1="1444.203" y2="1448.203"/><line style="stroke:#181818;stroke-width:1;stroke-dasharray:2,2" x1="1013" x2="1184" y1="1444.203" y2="1444.203"/><text x="1020" y="1439.137" fill="#000" font-family="sans-serif" font-size="13" lengthAdjust="spacing" textLength="148">Validate, measure,load</text><rect style="stroke:#181818;stroke-width:.5" width="126" height="38" x="945" y="1457.203" fill="#FEFFDD"/><text x="949" y="1473.27" fill="#000" font-family="sans-serif" font-size="13" lengthAdjust="spacing" textLength="118">Measure and load:</text><text x="949" y="1488.403" fill="#000" font-family="sans-serif" font-size="13" lengthAdjust="spacing" textLength="32">BL31</text><polygon fill="#181818" points="610.5 1517.602 600.5 1521.602 610.5 1525.602 606.5 1521.602" style="stroke:#181818;stroke-width:1"/><line style="stroke:#181818;stroke-width:1" x1="604.5" x2="1002" y1="1521.602" y2="1521.602"/><text x="616.5" y="1516.536" fill="#000" font-family="sans-serif" font-size="13" lengthAdjust="spacing" textLength="139">Extend measurement</text><rect style="stroke:#181818;stroke-width:.5" width="136" height="38" x="526" y="1534.602" fill="#FEFFDD"/><text x="530" y="1550.668" fill="#000" font-family="sans-serif" font-size="13" lengthAdjust="spacing" textLength="101">Measured Boot:</text><text x="530" y="1565.801" fill="#000" font-family="sans-serif" font-size="13" lengthAdjust="spacing" textLength="128">store measurement</text><rect style="stroke:#181818;stroke-width:.5" width="126" height="38" x="945" y="1582.867" fill="#FEFFDD"/><text x="949" y="1598.934" fill="#000" font-family="sans-serif" font-size="13" lengthAdjust="spacing" textLength="118">Measure and load:</text><text x="949" y="1614.067" fill="#000" font-family="sans-serif" font-size="13" lengthAdjust="spacing" textLength="30">RMM</text><polygon fill="#181818" points="610.5 1643.266 600.5 1647.266 610.5 1651.266 606.5 1647.266" style="stroke:#181818;stroke-width:1"/><line style="stroke:#181818;stroke-width:1" x1="604.5" x2="1002" y1="1647.266" y2="1647.266"/><text x="616.5" y="1642.2" fill="#000" font-family="sans-serif" font-size="13" lengthAdjust="spacing" textLength="139">Extend measurement</text><rect style="stroke:#181818;stroke-width:.5" width="136" height="38" x="526" y="1660.266" fill="#FEFFDD"/><text x="530" y="1676.332" fill="#000" font-family="sans-serif" font-size="13" lengthAdjust="spacing" textLength="101">Measured Boot:</text><text x="530" y="1691.465" fill="#000" font-family="sans-serif" font-size="13" lengthAdjust="spacing" textLength="128">store measurement</text><polygon fill="#181818" points="1168 1720.664 1178 1724.664 1168 1728.664 1172 1724.664" style="stroke:#181818;stroke-width:1"/><line style="stroke:#181818;stroke-width:1" x1="1008" x2="1174" y1="1724.664" y2="1724.664"/><text x="1015" y="1719.598" fill="#000" font-family="sans-serif" font-size="13" lengthAdjust="spacing" textLength="96">Pass execution</text><rect style="stroke:#eee;stroke-width:1" width="1247" height="3" x="0" y="1753.23" fill="#EEE"/><line style="stroke:#000;stroke-width:1" x1="0" x2="1247" y1="1753.23" y2="1753.23"/><line style="stroke:#000;stroke-width:1" x1="0" x2="1247" y1="1756.23" y2="1756.23"/><rect style="stroke:#000;stroke-width:2" width="148" height="23.133" x="549.5" y="1742.664" fill="#EEE"/><text x="555.5" y="1758.731" fill="#000" font-family="sans-serif" font-size="13" font-weight="bold" lengthAdjust="spacing" textLength="129">RSE / AP Runtime</text></g></svg>